<svg id="Layer_1" data-name="Layer 1" xmlns="http://www.w3.org/2000/svg" viewBox="0 0 309.85 36.48"><defs><style>.cls-1{fill:#535453}</style></defs><path class="cls-1" d="M.09 30.74L13.92 1a.9.9 0 0 1 .75-.48h.44a.9.9 0 0 1 .75.49L29.7 30.74a.78.78 0 0 1-.75 1.15H24a1.48 1.48 0 0 1-1.55-1.1L20.9 27.3h-12l-1.61 3.53a1.65 1.65 0 0 1-1.59 1.06H.84a.78.78 0 0 1-.75-1.15zm18.16-9.46L14.89 14l-3.31 7.29h6.72zM48.92.56A17.06 17.06 0 0 1 59.7 4.72a.78.78 0 0 1 .09 1.19L56.3 9.62a.93.93 0 0 1-1.19 0 8.13 8.13 0 0 0-5.79-2.12 8.86 8.86 0 0 0 0 17.72 10.44 10.44 0 0 0 3.93-.71V22h-2.74a.8.8 0 0 1-.84-.8v-4.38a.81.81 0 0 1 .84-.82h8.88a.83.83 0 0 1 .8.84v11.89a1.09 1.09 0 0 1-.35.71 22.33 22.33 0 0 1-11 2.87A15.86 15.86 0 1 1 48.92.56zM64.51 30.74L78.35 1a.9.9 0 0 1 .75-.48h.44a.9.9 0 0 1 .75.49l13.83 29.73a.78.78 0 0 1-.75 1.15h-4.9a1.48 1.48 0 0 1-1.55-1.1l-1.59-3.49h-12l-1.59 3.54a1.65 1.65 0 0 1-1.59 1.06h-4.88a.78.78 0 0 1-.76-1.16zm18.16-9.46L79.32 14 76 21.29h6.72zM100 1.8a.84.84 0 0 1 .79-.8h10.65a9.88 9.88 0 0 1 9.9 9.77 9.94 9.94 0 0 1-9.85 9.94h-4.64v10.34a.87.87 0 0 1-.84.84h-5.21a.84.84 0 0 1-.84-.84V1.8zm11 12.42a3.47 3.47 0 0 0 3.49-3.49A3.37 3.37 0 0 0 111 7.46h-4.2v6.76h4.2zM128.06 1.8a.84.84 0 0 1 .84-.8h18.29a.84.84 0 0 1 .84.84v4.78a.84.84 0 0 1-.84.84h-12.24v5.48H145a.87.87 0 0 1 .84.84v4.82a.84.84 0 0 1-.84.84h-10.05v6h12.24a.84.84 0 0 1 .84.84v4.82a.84.84 0 0 1-.84.84H128.9a.84.84 0 0 1-.84-.84V1.8zM222.84 1.91a.84.84 0 0 1 .84-.84h13.21a9.61 9.61 0 0 1 9.63 9.54c0 4.07-2.7 7.34-6.54 8.88L246 30.73a.84.84 0 0 1-.75 1.28h-5.88a.81.81 0 0 1-.71-.4l-5.83-11.71h-3v11.27a.87.87 0 0 1-.84.84h-5.26a.84.84 0 0 1-.84-.84V1.91zm13.48 12.37a3.54 3.54 0 0 0 3.36-3.54 3.39 3.39 0 0 0-3.36-3.36h-6.54v6.89h6.54zM254.65 1.91a.84.84 0 0 1 .84-.84h18.29a.84.84 0 0 1 .84.84v4.82a.84.84 0 0 1-.84.84h-12.23V13h10.08a.87.87 0 0 1 .84.84v4.82a.84.84 0 0 1-.84.84h-10.08v6h12.24a.84.84 0 0 1 .84.84v4.82a.84.84 0 0 1-.84.84h-18.3a.84.84 0 0 1-.84-.84V1.91zM282.76 1.91a.83.83 0 0 1 .8-.84h10.78a15.47 15.47 0 1 1 0 30.93h-10.79a.83.83 0 0 1-.8-.84V1.91zm11.14 23.56c5 0 8.62-3.93 8.62-9a8.59 8.59 0 0 0-8.62-8.93h-4.24v17.9h4.24z"/><path d="M186 36.48l-1.24-1c-.07-.06-6.95-5.6-10.87-8.65a25.88 25.88 0 0 1-7.87-9.32 12.31 12.31 0 0 1 5.24-15.85A13.05 13.05 0 0 1 177.61 0 12.7 12.7 0 0 1 186 3.33 12.71 12.71 0 0 1 194.45 0a13 13 0 0 1 6.31 1.66A12.33 12.33 0 0 1 206 17.51a25.9 25.9 0 0 1-7.87 9.32c-3.56 2.77-10.8 8.59-10.87 8.65z" fill="#e01e48"/></svg>