<svg viewBox="0 0 309.85 36.48" xmlns="http://www.w3.org/2000/svg"><path d="m.09 30.74 13.83-29.74a.9.9 0 0 1 .75-.48h.44a.9.9 0 0 1 .75.49l13.84 29.73a.78.78 0 0 1 -.75 1.15h-4.95a1.48 1.48 0 0 1 -1.55-1.1l-1.55-3.49h-12l-1.61 3.53a1.65 1.65 0 0 1 -1.59 1.06h-4.86a.78.78 0 0 1 -.75-1.15zm18.16-9.46-3.36-7.28-3.31 7.29h6.72zm30.67-20.72a17.06 17.06 0 0 1 10.78 4.16.78.78 0 0 1 .09 1.19l-3.49 3.71a.93.93 0 0 1 -1.19 0 8.13 8.13 0 0 0 -5.79-2.12 8.86 8.86 0 0 0 0 17.72 10.44 10.44 0 0 0 3.93-.71v-2.51h-2.74a.8.8 0 0 1 -.84-.8v-4.38a.81.81 0 0 1 .84-.82h8.88a.83.83 0 0 1 .8.84v11.89a1.09 1.09 0 0 1 -.35.71 22.33 22.33 0 0 1 -11 2.87 15.86 15.86 0 1 1 .08-31.75zm15.59 30.18 13.84-29.74a.9.9 0 0 1 .75-.48h.44a.9.9 0 0 1 .75.49l13.83 29.73a.78.78 0 0 1 -.75 1.15h-4.9a1.48 1.48 0 0 1 -1.55-1.1l-1.59-3.49h-12l-1.59 3.54a1.65 1.65 0 0 1 -1.59 1.06h-4.88a.78.78 0 0 1 -.76-1.16zm18.16-9.46-3.35-7.28-3.32 7.29h6.72zm17.33-19.48a.84.84 0 0 1 .79-.8h10.65a9.88 9.88 0 0 1 9.9 9.77 9.94 9.94 0 0 1 -9.85 9.94h-4.64v10.34a.87.87 0 0 1 -.84.84h-5.21a.84.84 0 0 1 -.84-.84v-29.25zm11 12.42a3.47 3.47 0 0 0 3.49-3.49 3.37 3.37 0 0 0 -3.49-3.27h-4.2v6.76zm17.06-12.42a.84.84 0 0 1 .84-.8h18.29a.84.84 0 0 1 .84.84v4.78a.84.84 0 0 1 -.84.84h-12.24v5.48h10.05a.87.87 0 0 1 .84.84v4.82a.84.84 0 0 1 -.84.84h-10.05v6h12.24a.84.84 0 0 1 .84.84v4.82a.84.84 0 0 1 -.84.84h-18.29a.84.84 0 0 1 -.84-.84zm94.78.11a.84.84 0 0 1 .84-.84h13.21a9.61 9.61 0 0 1 9.63 9.54c0 4.07-2.7 7.34-6.54 8.88l6.02 11.24a.84.84 0 0 1 -.75 1.28h-5.88a.81.81 0 0 1 -.71-.4l-5.83-11.71h-3v11.27a.87.87 0 0 1 -.84.84h-5.26a.84.84 0 0 1 -.84-.84v-29.26zm13.48 12.37a3.54 3.54 0 0 0 3.36-3.54 3.39 3.39 0 0 0 -3.36-3.36h-6.54v6.89h6.54zm18.33-12.37a.84.84 0 0 1 .84-.84h18.29a.84.84 0 0 1 .84.84v4.82a.84.84 0 0 1 -.84.84h-12.23v5.43h10.08a.87.87 0 0 1 .84.84v4.82a.84.84 0 0 1 -.84.84h-10.08v6h12.24a.84.84 0 0 1 .84.84v4.82a.84.84 0 0 1 -.84.84h-18.3a.84.84 0 0 1 -.84-.84zm28.11 0a.83.83 0 0 1 .8-.84h10.78a15.47 15.47 0 1 1 0 30.93h-10.79a.83.83 0 0 1 -.8-.84v-29.25zm11.14 23.56c5 0 8.62-3.93 8.62-9a8.59 8.59 0 0 0 -8.62-8.93h-4.24v17.9h4.24z" fill="#535453"/><path d="m186 36.48-1.24-1c-.07-.06-6.95-5.6-10.87-8.65a25.88 25.88 0 0 1 -7.87-9.32 12.31 12.31 0 0 1 5.24-15.85 13.05 13.05 0 0 1 6.35-1.66 12.7 12.7 0 0 1 8.39 3.33 12.71 12.71 0 0 1 8.45-3.33 13 13 0 0 1 6.31 1.66 12.33 12.33 0 0 1 5.24 15.85 25.9 25.9 0 0 1 -7.87 9.32c-3.56 2.77-10.8 8.59-10.87 8.65z" fill="#e01e48"/></svg>