<svg id="Layer_1" data-name="Layer 1" xmlns="http://www.w3.org/2000/svg" viewBox="0 0 1171.56 961.19"><defs><style>.cls-1{fill:#fefefe;}.cls-2{fill:#010101;}</style></defs><path class="cls-2" d="M375.51,752.29c1.39-3.3,1.28-6.9,2.12-10.32,10.07-40.76,33-72,69.28-93.2a219.94,219.94,0,0,1,58.2-23.56c4-1,6.13-3.56,7-7.35a246.82,246.82,0,0,1,6.89-25c7-21.15,14.65-42,25-61.83,12-22.88,29.82-40,51.94-52.93,6.52-3.8,13.56-6.4,21.24-6.72a18.64,18.64,0,0,1,11.7,3.27c5,3.47,4.55,9.7-.79,12.6a12.28,12.28,0,0,1-2.34,1c-17.19,5.14-29,16.71-38,31.68-8,13.3-12.87,28-18.51,42.26a193.37,193.37,0,0,0-11.87,47.49c-.81,6.65.92,8.9,7.49,9.88a55.59,55.59,0,0,0,8.84.73c6.72-.09,11.57-3,14.06-9.34,1.74-4.41,3.11-9,4.89-13.35,2.08-5.18,4.38-6.41,9.83-5.67a42.27,42.27,0,0,1,16.26,5.9,4.22,4.22,0,0,1,2.37,4.39c-1.55,16-3.68,31.92-8,47.46-2.61,9.48-8.85,12.1-17.66,7.73a103.09,103.09,0,0,1-13.7-7.9c-3.89-2.75-5-6.32-4-10.79.22-1,.37-2.07.51-3.12.33-2.55-1-3.86-3.38-3.94-6-.2-12.06-.52-18,.58-4.68.86-6.53,2.71-7.35,7.42-4.17,24.15-7.32,48.48-12.51,72.46-4.11,19-7.42,38.16-12.77,56.87a118.74,118.74,0,0,1-11.92,27.53A55.88,55.88,0,0,1,487,819.7c-12,5.52-24.1,11.23-37.52,11.77-16,.65-30.71-4.81-44.7-12.24a61,61,0,0,1-23.34-22.3,36,36,0,0,1-5.24-14.81c-.08-.65.33-1.54-.68-1.88Zm28.14,6.78c-.23,9.47,1.34,15.19,6,19.86a44,44,0,0,0,19,10.9c8.21,2.47,15.2.42,21.23-5.45,5.88-5.71,9.76-12.73,12.7-20.23q18.21-46.56,32.35-94.53,2.22-7.59,4.23-15.24c1.18-4.45-.35-6.06-4.85-5a35.7,35.7,0,0,0-6.23,2.26c-7.37,3.29-13.94,7.91-20.65,12.31-19.53,12.82-36.17,28.49-48.36,48.57C409.82,727.78,404.7,744.35,403.65,759.07Z" transform="translate(-375.51 -43.23)"/><path class="cls-2" d="M1531.09,248.58c-6.14-9.86-12.34-19.68-20-28.5-7.31-8.44-15.22-16.18-24.77-22.08-23.4-14.44-45.85-9.06-60.47,14.81,4.14,1.79,8.23,3.58,12.33,5.31,1.31.55,2.13-.66,3.09-1.15,9.74-4.94,19.11-4.4,28.13,1.78a20.5,20.5,0,0,1,1.61,1.47c-8.31-2-15.6-2.25-22.94,2.2l48.45,21c-1.23-4.75-3.61-8.49-5.12-12.62,1.23-.62,1.6.54,2.1,1.22,2.67,3.55,5.41,7.07,7.28,11.12a8.32,8.32,0,0,0,4.74,4.26c11.54,4.93,23,10,34.53,15,7.14,3.11,8.44,8.82,3.13,14.56-5.89,6.35-13.65,9.83-21.34,13.36-1.23.56-2.49,1.08-3.81,1.66a151,151,0,0,1,1.77,41.82c-1.54,15-4.92,29.4-13.65,42-4.61,6.67-10.39,12.05-18.45,14.24-11,3-20.41-.63-28.71-7.74-6.6-5.65-11.38-12.73-15.41-20.36-.54-1-1-2-1.75-3.51l-40.67,70.2c7.74,2.67,15.25,5.27,22.77,7.84l38,13c2.44.83,4.56,2.21,4.9,4.86s-1.91,4.08-4,5.21c-6.74,3.75-14.21,5.34-21.67,6.77-24.66,4.76-49.62,6.85-74.69,7.75-5.79.2-11.6,0-17.6,0,.92,6.42,1.79,12,2.5,17.7.18,1.48.9,1.86,2.16,2.17,25.51,6.35,35.1,42.5,17.52,62.7-9.85,11.32-25.57,12.62-37.93,3.26-17.32-13.12-20.22-41.2-5.89-57.5a73.75,73.75,0,0,1,5.66-5.25c-2.89-7.31-5.8-14.64-8.66-22-.37-.94-.69-1.65-1.87-1.82-18.87-2.6-37.29-7.39-55.79-11.77-.09,0-.2.06-.67.19l-8.75,23.48c2.08,1.73,4.23,3.26,6.08,5.09,14,13.94,17.84,31,14.69,49.9-2.19,13.12-8.18,24.36-18.46,33.06-18.31,15.5-43,12.74-57.53-6.38-18-23.76-12.54-61.78,11.39-79.24,6.3-4.59,11.52-6.52,22.2-8.15,1.06-8.2,2.13-16.47,3.25-25.16-5-1.36-10-2.8-15.08-4.1-30.11-7.72-59.1-18.81-88.25-29.42a16.47,16.47,0,0,0-5.56-1c-24.34-.17-48.68-.16-73-.66q-62-1.26-124-4c-41.09-1.8-82.18-3.79-123.2-6.9-22.26-1.69-44.59-1.6-66.85-3.23-27-2-53.89-5.05-80.45-10.53-4.23-.87-8.54-1.55-12.55-3.26-11.92-5.07-16.73-14.89-17.69-27.08a77.83,77.83,0,0,1,1.88-23.71c-9-3.86-17.7-7.92-25.64-13.38-5.7-3.92-11-8.28-14.59-14.35-2.65-4.48-1.89-6.71,3.1-8.21,7.7-2.32,15.67-2.26,23.6-2.15,7.61.12,15.23.35,22.82.83,2.35.15,3.26-.58,4.18-2.61,11.14-24.65,24.76-47.81,41.88-68.83a92.59,92.59,0,0,1,13.71-14.07c7.67-6.17,14.8-6.87,23.49-2.13,8.12,4.44,14.47,10.95,20.36,17.93,13.49,16,24.1,33.92,34.54,51.94,5.16,8.92,10.9,17.36,18.46,24.46a4,4,0,0,0,3.6,1.38Q826,308,848.47,304.64a5.56,5.56,0,0,0,1.16-.51c-4.22-2.66-8.45-5-12.19-8a33.94,33.94,0,0,1-8-8.56c-3.22-5.33-2.39-10.36,2.35-14.43s10.47-6.29,16.32-8.13c15.18-4.79,30.88-7,46.62-8.9,19.54-2.34,39.16-3.71,58.81-4.73a87.24,87.24,0,0,1,15.89,1.11q13.9-61.62,27.84-123.34c-8.14-3.9-16.16-7.64-24.08-11.57-19-9.42-38.21-18.49-55.74-30.61a42.86,42.86,0,0,1-9.69-9.08C902,70.35,903.18,64,911.3,59.07c6.79-4.12,14.38-6,22.05-7.6,20.58-4.22,41.47-5.58,62.4-6.45,10.35-.43,20.71-.72,31.07-1.08,18.8-.65,36.66,4,54.29,9.77,25.1,8.26,49.14,19.08,72.93,30.49,40.72,19.55,80.28,41.36,120.2,62.45,21.41,11.31,43.83,20.27,66.09,29.65,25,10.53,49.89,21.23,75,31.92a74.22,74.22,0,0,1,9.9-13.78c17.71-18.46,41.69-21.16,63.67-7,15.49,9.95,26.24,24,34.45,40.23a120.75,120.75,0,0,1,8.34,20.49ZM1097,173.41l-35.89,99.37c1.31-.09,2.24-.09,3.16-.22q33.09-4.9,66.18-9.81c3.46-.5,6.78-1.5,10.51.1a66.87,66.87,0,0,0,25,5.27c24.14.55,44.94-8.24,63.65-22.82.91-.71,1.66-1.47,3-1.44,5.61.14,11.22.18,16.82.21,6.15,0,12.29,0,18.44,0C1210.64,221.26,1153.85,197.62,1097,173.41Zm-88.69-39.25L981.16,254.61c7.49,1.82,14.79,3.89,22,6.27,12.52,4.15,24.77,9,36.88,14.18,4.23,1.82,7.52.36,9-3.78q14.78-40.89,29.55-81.78c2.5-6.9,5-13.81,7.48-20.82C1060,157.38,1034.22,146,1008.34,134.16ZM977.43,53.07a22.06,22.06,0,0,0,3.44.8c14.24,1.08,28.41,2.75,42.57,4.61a180.86,180.86,0,0,1,30.37,6.26A270.56,270.56,0,0,1,1085,77q51.54,23.47,102.43,48.38c21.78,10.68,43,22.41,64.84,33.06,38.68,18.89,78.17,36,117.83,52.71,12.5,5.26,25.08,10.31,37.83,15.54l2.35-7.63-24.92-11.32c-42.14-19.15-84.5-37.84-126-58.42-31.56-15.66-63-31.57-95-46.28-27.51-12.64-55.29-24.64-83.61-35.33-9.85-3.71-19.59-8-30-9.81a279.42,279.42,0,0,0-33.06-3.77C1004.14,53.46,990.65,53,977.43,53.07ZM1508.28,295.6a270.05,270.05,0,0,1-29,7.66,3.25,3.25,0,0,0-.19.76,11.76,11.76,0,0,0,.21,1.89c1.73,7.06-1.11,12.34-6.42,16.69a43.39,43.39,0,0,1-13.64,7.88c-3.75,1.24-4.91,3.52-5.57,7.16-1.24,6.78-3.13,13.42-9.63,17.45a3.63,3.63,0,0,0-1.57,3c1.66,2,3.28,3.92,5,5.83,6.13,7,13,13,21.84,16.33,9.41,3.52,17.75,1.31,24.29-6.25a45.43,45.43,0,0,0,7.92-13.26C1509.64,339.78,1509.9,318,1508.28,295.6ZM1176,362.32c-1.31-.83-2.59-1.7-3.92-2.49q-48.63-29.19-99.63-54c-27-13.08-54.28-25.39-82.76-34.9-12.48-4.17-25.14-7.13-38.53-6.25a727.38,727.38,0,0,0-72.4,8.57c-5,.85-10.08,1.76-15.12,2.64a3.43,3.43,0,0,0,2.28.54q36.3-1.29,72.59-2.59c16.43-.61,32.36,1.33,47.89,7.31q26.41,10.19,52.37,21.47c43.59,19,86.75,39,130.47,57.81C1171.37,361.37,1173.36,362.6,1176,362.32Zm251.24-2.51c-8.67,2.38-16.4,4.47-24.11,6.64-4.15,1.17-8.57,1.65-12.39,3.74-5.92,3.25-11.93,6.31-18.11,9a3.34,3.34,0,0,0-2.31,3.15c-.55,4.61-1.46,9.18-2.18,13.77-1,6.66-2,13.33-3.08,20.14,7.4,2.55,14.6,4.92,21.7,7.55,2.22.82,3.24.5,4.43-1.6,6.72-11.84,13.62-23.59,20.44-35.37C1416.74,378.1,1421.78,369.33,1427.28,359.81Zm-772-55.7a38.78,38.78,0,0,1,6.17.52c2.72.7,3.86-.46,5.07-2.73,10.07-19,21.21-37.25,34.39-54.24a41.59,41.59,0,0,1,8.3-8.67c4.18-3,8.34-3.16,12.69-.49a48.88,48.88,0,0,1,10.13,8.57c10.85,11.62,19.9,24.69,29.83,37.05a347.76,347.76,0,0,0,23.23,26c.67-1.59-.37-2.4-1-3.29-6-8.41-11.66-17.1-17.27-25.8-7.27-11.27-13.87-23-22-33.71-5.1-6.78-10.43-13.32-17.62-18.07s-14.61-4.94-22.15-.86a36.69,36.69,0,0,0-10.72,9.28c-12.06,14.69-21.79,30.86-30.46,47.71C660.86,291.39,657.94,297.44,655.3,304.11ZM1247.41,531.2a24.53,24.53,0,0,0-5.85-16.66,17.71,17.71,0,0,0-22.9-3.94c-13.24,7.69-16.28,28.66-5.77,39.84,7.28,7.74,18.21,8.13,26,.86C1244.75,545.88,1247.36,539.07,1247.41,531.2Zm170.77-201c-6.07-24.63-4-48.82,3.9-72.85L1412,258c-11.81.73-23.61,1.48-35.42,2.18-1.46.08-2.54.23-3.06,2-2.23,7.56-2.75,15.29-2.92,23.12l35.56,3.62C1408.15,303.34,1411.43,317.2,1418.18,330.18ZM602.56,312.41c45.37,3.26,90.78,11.07,137.45,10.3a11.72,11.72,0,0,0-1.17-.56,399.19,399.19,0,0,0-52-9.75c-23.34-2.95-46.73-4.75-70.25-2.9C611.61,309.89,606.55,310.39,602.56,312.41Zm833.59,147.76.27.47c5-.86,10-1.69,15-2.6,1.67-.31,3.47-.68,3.61-2.88s-1.52-2.47-3-3a390.54,390.54,0,0,0-63.84-18c-2.69-.53-5.42-.87-8.14-1.23s-5.2-.58-7.8-.87c22.51,11.61,46.48,18.56,71.54,24.15Zm3.61-163.07c10.33-1.13,20.4-2.28,30.85-1.6-7.11-11.09-28.38-18-35.89-11.92C1436.36,288,1438,292.39,1439.76,297.1Zm-86.09,115.22c1.41-9,2.78-17.77,4.2-26.79L1337,392.89c.61,4.3,1.2,8.36,1.76,12.43.15,1.08.28,2.08,1.53,2.5C1344.68,409.27,1349,410.76,1353.67,412.32Zm82.13-174.39,66.69,26.51c.42-2.08-.61-2.81-2.1-3.51-6.67-3.14-13.26-6.46-19.94-9.6-13.81-6.5-27.66-12.92-41.55-19.4A14.6,14.6,0,0,0,1435.8,237.93ZM643.29,344.07c-2.58,6.86-2.44,23.05.37,28.71-.78-9.53,1.18-18.36,3.87-27.22Zm774-113.65,7.92,3.13c1.34-2.09,2.55-4,3.84-6L1420,223.5C1419.06,225.8,1418.24,227.92,1417.26,230.42Zm102.47,40.84c-2.47-1.58-4.88-3.47-8.55-4.56C1513.67,269.93,1517,269.9,1519.73,271.26Z" transform="translate(-375.51 -43.23)"/><path class="cls-2" d="M1161.92,663.78c-11.1,5.07-23.19,5.28-34.94,7.11a6.24,6.24,0,0,0-4.83,3c-20.23,31.83-40.68,63.52-60.66,95.51-8.1,13-14.58,26.92-22.6,40a138.46,138.46,0,0,1-9.57,14.17c-11.47,14.3-31.78,13.29-41.65-2.11-5.55-8.66-7-18.24-7-28.45,0-19.29,7.32-36.72,12.81-54.65,1.93-6.32,4.14-12.57,6.47-19.59-3.08,1.89-5.47,3.35-7.85,4.83a57.69,57.69,0,0,1-19.58,7.86,8.47,8.47,0,0,0-6.91,6.15c-3.14,9.29-6.23,18.58-11.06,27.23-13,23.3-30.14,43.07-50.46,60.2a60,60,0,0,1-10.26,6.86c-6.13,3.31-12.7,2.47-19.21,1.43-23.4-3.73-34.6-19.1-39-40.93-.07-.36-.11-.73-.24-1.6l-19.48,21.82c-4.44,5-8.92,9.91-13.33,14.9-3.78,4.28-8.6,7.11-13.47,9.89-17.66,10.08-12.91,5.33-21.37,22.56-12.24,24.89-24,50-36.17,75-4.24,8.7-10.48,16.12-16.37,23.71a187.91,187.91,0,0,1-36.35,35.19c-17.11,12.79-35.55,12.29-54.82,5.83-21-7.05-30.4-24.64-31.13-44.66-.2-5.49,1.92-10.57,4.08-15.52,6.65-15.17,17.69-26.89,29.62-38,13-12.06,28.25-20.05,44.22-27.34,14.07-6.44,28.79-10.91,43.2-16.29,6.12-2.29,10.09-5.92,12-12.29,1.58-5.22,4-10.18,6.09-15.27.42-1,1.1-2.07.56-3.06-15.14,1.31-27.69-4.82-39.37-13.11-12.63-9-16.31-22.54-18.1-37.15-2.71,6.44-5.36,12.78-8,19.11a106.69,106.69,0,0,1-11.7,21.67c-15.49,21.2-41.36,20.27-58.16,6.61-5.67-4.61-9.19-10.22-11.58-17.22-6.12-17.94-5-35.72-.94-53.78a328.49,328.49,0,0,1,22.5-66.08c12.06-26.15,23.34-52.66,36-78.5,9.29-19,21-36.64,32.28-54.49,10.26-16.25,26.37-22.9,44.45-25.36,12-1.63,19.29,5.56,20.12,19,1,15.54-2.12,30-11.85,42.7-5,6.54-9.87,13.23-14.43,20.1C704,625.46,690.71,636.59,676.56,647c-6.79,5-13.67,10.19-17.3,18.22-8,17.68-16,35.33-21.4,54.08-3.11,10.85-7.34,21.41-9.59,32.46-3.26,16-7.37,32-7.37,48.48a41.93,41.93,0,0,0,2.17,14c3.3,9.34,11.16,11.88,19.35,6.27,4-2.75,6.89-6.54,9.39-10.62,5-8.18,9.7-16.57,14.1-25.12,1-2,2-4,3.14-5.85a49.71,49.71,0,0,0,7.36-19c1.83-11.68,6.91-22.38,12.35-32.76,9.52-18.17,16.68-37.36,24.86-56.12a71.9,71.9,0,0,1,9.93-16.51c4.44-5.49,9.94-9.08,17-10a6.46,6.46,0,0,1,4,.33c5.26,2.85,10,6.34,12.92,11.77a12.07,12.07,0,0,1,.24,10.46c-14.59,37-24.73,75.33-36,113.33-1.39,4.66-3,9.26-3.29,14.17-.05,1-.18,2.11-.16,3.16.18,8.33,6.51,12.2,14.14,8.66,4.45-2.08,7.64-5.6,10.65-9.32,5.64-7,9-15.23,12.33-23.47,2.32-5.77,4.51-11.6,6.8-17.38,3.11-7.84,7.74-14.92,10.53-23a450.37,450.37,0,0,1,32.61-73c2.07-3.7,4-4.51,8.06-3.35,7.75,2.2,12.18,9.27,11.23,17.49a442.12,442.12,0,0,1-17.84,81.92c-4.71,15-8.76,30.18-15.08,44.63a55.64,55.64,0,0,0-3,9.36c-.56,2.32.35,3.37,2.4,3.94,2.89.81,5.41-.18,7.84-1.6,3.88-2.29,6.93-5.53,9.94-8.81,8.69-9.49,18.36-18.15,24.74-29.61a30.51,30.51,0,0,0,3-7.19c5.16-19.56,11.82-38.51,22.69-55.75,2.14-3.39,4.24-6.83,6.07-10.39,7.27-14.1,17.91-25.25,30.07-35.18,9.5-7.76,13.62-6.43,19.88,5.64,2.71,5.22,1.71,11.23,1,16.89-1.1,9.14-5.55,17.23-8.42,25.82-7.42,22.21-17,43.62-24.63,65.78a77.49,77.49,0,0,0-4.06,30.27c.52,8.14,5.54,11.12,13.17,8.32,6.34-2.33,11.29-6.7,15.65-11.6A210.88,210.88,0,0,0,949.47,738c3.14-8.65,3.08-8.91-4.12-14.43-8.85-6.77-14-15.64-16-26.42a25.51,25.51,0,0,1,1.83-14.58,53.23,53.23,0,0,1,7.16-12.29c4-5.17,12.37-6.94,18.21-3.81a60.88,60.88,0,0,1,10.71,7.35c4.31,3.69,4.18,9,4.88,14,1.48,10.64-.84,21.07-1.6,31.59-.28,3.86.11,4.4,4,3.57,9.69-2.07,18.48-6.46,27.19-11,1.17-.62,1.32-1.82,1.7-2.91,4.38-12.68,9.09-25.21,15.88-36.85.32-.54.62-1.11.94-1.65,3.54-6,4.87-8,12.81-2.88,7.09,4.56,9.2,11.27,8.77,19.64-1.1,21.42-6.5,41.92-12.13,62.4-3.58,13-7.2,26-10.72,39.09a18.64,18.64,0,0,0-.8,7.4c2.78-1.07,4.2-3.05,5.74-4.81a177.94,177.94,0,0,0,19.92-27.83c11.31-19.48,24.27-37.89,36.52-56.76,9-13.92,17.65-28.06,25.48-42.69,1.7-3.19,1.92-5.87-.36-9-8.28-11.4-7.74-23.88-4-36.65a8.83,8.83,0,0,1,2.79-4.18,32.16,32.16,0,0,1,22.84-7.82c6,.24,11.92,6.57,13.5,13.71,1.29,5.83.14,11.62-1,17.29-1.37,6.68-2.35,13.53-6.46,19.36-1.2,1.71.39,2.11,1.73,2.32a59.46,59.46,0,0,0,19.87-.54c.83-.15,1.65-.35,2.49-.48,9-1.36,16.31-5.17,21.58-13.13,5.77-8.7,14.52-12.23,24.91-11.71a11.5,11.5,0,0,1,8.48,4.34c9.06,10.53,13.75,23,15.37,36.54,3,25.34-5.57,47.36-20.16,67.48-4.29,5.91-9.24,11.3-13.9,16.92-6.28,7.59-14.46,12.18-23.43,15.69-4.35,1.71-4.3,1.8-2.91,6.24,3.09,9.93,7.59,19,15.49,26.08a26.81,26.81,0,0,0,9.51,5.53,12.56,12.56,0,0,0,13-2.48,81.9,81.9,0,0,0,16.14-19.06c7.27-11.46,16-21.83,24-32.75,10.67-14.59,21.55-29,30.75-44.63,2.76-4.67,4.43-9.8,6.62-14.71,1.26-2.81.36-5.18-2.14-6.89-4.17-2.87-6.71-6.91-8.59-11.5-2.27-5.53-2.19-10.86.82-16.13,3.77-6.61,7.95-12.38,16.63-12.93,9.28-.6,14.56,3.91,14.62,13.14,0,5.42-.86,10.74-1.6,16.08-.7,5.12-.11,6,5,5.62,9-.7,17.9-1.67,26.84-2.52,8.4-.8,16.71-2.29,25.25-1.75,12.22.78,24.94,13.25,20.54,29.22A82.89,82.89,0,0,1,1366,738.65c-11.78,15.75-19,33.49-23.63,52.43a27.1,27.1,0,0,0,.35,13.82c2.34,8.28,10.26,12.49,20.55,11.34,10.85-1.21,19.86-6.37,27.93-13.23,8.93-7.61,17.47-15.68,26.26-23.47a160.63,160.63,0,0,1,63.28-34.83c18-5.13,35.86-10.54,54.45-13,2.3-.31,4.63-.4,6.95-.57.93-.07,2.07-.33,2.39.88s-.82,1.5-1.67,1.9c-11.46,5.37-22.67,11.32-34.52,15.78a511.34,511.34,0,0,0-66.55,30.15c-12.87,7.08-24.43,16.3-35.74,25.72-8.13,6.78-16.76,12.85-25.51,18.81-13,8.82-27.28,10.8-42.34,10.16a71.06,71.06,0,0,1-10.72-1.08c-15.73-3.12-28.45-20.4-27.77-36.37.73-17,7.47-31.83,16-45.85,7.29-12,16-23.16,24.78-34.13,2.45-3,5.23-5.82,7.77-8.79a20.63,20.63,0,0,0,2.27-3.41,2.6,2.6,0,0,0,.09-3c-.69-.87-1.78-.52-2.68-.32-12,2.63-24.18,2-36.32,1.38-3.58-.19-7.16-.61-10.72-1a4.4,4.4,0,0,0-4.75,2.3c-19.83,32.47-41.9,63.48-63,95.12a163.24,163.24,0,0,1-26,29.87,19.36,19.36,0,0,1-12.62,5.1c-27.86,1.35-51-14.07-61.72-40.65-7.17-17.86-7.61-36.26-6.81-55.15,1-23.18,11.71-41.72,25.17-59.34,3.78-5,7.62-9.87,11.44-14.81l.76-.89A1,1,0,0,0,1161.92,663.78ZM708.68,882.17c-3.81,1.56-7.14,3-10.53,4.29a138.4,138.4,0,0,0-30.89,15.81c-18.52,13-34.86,28.47-50,45.2A28.74,28.74,0,0,0,611,958.71c-2.71,9.12,1.18,17.13,10.29,19.77,11.87,3.44,22.68,1,32.25-7,7.44-6.27,13.4-13.77,18.93-21.67,13.44-19.18,23.42-40.26,33.57-61.25C706.92,886.62,708.24,884.82,708.68,882.17Zm-36.5-251.55a10,10,0,0,0,4.16-2.67c6.41-5.56,12.11-11.82,17.87-18,12.66-13.61,23.61-28.43,31.61-45.29,1.91-4,3.29-8.26,3-12.83-.46-7.26-6.94-11.21-13.59-8.3-3.65,1.6-6.05,4.49-8.11,7.77-10.94,17.4-19.25,36.08-26.61,55.2A237.76,237.76,0,0,0,672.18,630.62Zm541.62,43.56c-.08-1.86.6-4.35-1.2-5.5s-3.36,1.07-5,1.79a5,5,0,0,0-.77.56c-6.63,4.84-11.32,11.36-15.42,18.3-12.14,20.53-19.11,43.1-25.6,65.84-.38,1.34-.83,2.87.43,3.84s2.64,0,3.79-.69c4-2.36,6.9-5.9,9.62-9.55,11.37-15.25,19.82-32.09,27-49.63C1209.85,691.13,1212.81,683,1213.8,674.18Zm-96.27-39.47a26,26,0,0,0,1.22,8.77c.48,1.39.83,3.24,2.51,3.28,2,.06,2.24-2,2.62-3.46a30.94,30.94,0,0,0,.93-13.46,19.56,19.56,0,0,0-.94-3.65,2.86,2.86,0,0,0-2.79-2.19c-1.4.06-1.81,1.29-2.19,2.39A21.8,21.8,0,0,0,1117.53,634.71Zm173.1,34.07a5.28,5.28,0,0,0-.58-3.13c-1-1.92-2.23-2.36-4.08-1.2-5.39,3.37-6.5,12.19-2.09,16.7,1.94,2,3.47,1.69,4.42-1A45.33,45.33,0,0,0,1290.63,668.78ZM952.47,710.54c1.65-6.24,3.28-12,3.13-18a9.83,9.83,0,0,0-1-4c-.68-1.48-1.58-1.57-2.6-.33C947.82,693.3,947.72,705.38,952.47,710.54Z" transform="translate(-375.51 -43.23)"/><path class="cls-2" d="M596.84,428.2c8.53-.07,24.72.22,40.86,1.62,17.13,1.48,33.72,5.68,50.27,10.12,20.68,5.55,41.16,11.86,62.08,16.57a83.35,83.35,0,0,0,39.81-.56,46,46,0,0,1,18.25-1.27c5.77.87,9.67,4.12,10.87,9.66,3,13.8.86,26.78-8.19,37.94-6.3,7.77-15.14,10.55-24.75,9.41-16.09-1.91-32.26-2.12-48.38-3.35-17.8-1.36-34.5-6.72-50.36-14.91-12.65-6.53-25.28-13.08-38.26-19-21.87-9.9-44.7-13.06-68.4-10.47-18.18,2-36.4,3.69-54.44,6.81-17,2.93-33.31,7.65-47.66,17.74a67.8,67.8,0,0,0-22.34,25.9c-5.86,11.92,1.27,27,14.14,30.38,3.39.87,6.81,1.64,9,4.77,2.86,4.08,1.91,8-2.55,10.24a15.7,15.7,0,0,1-11.71,1,43.38,43.38,0,0,1-20.86-12.62A80.27,80.27,0,0,1,429.52,525c-5.49-13.09-3.93-25.61,3.33-37.58C443.1,470.55,457.43,458,474.7,448.7c18.27-9.86,38-15.14,58.41-17.94C551.73,428.21,570.46,428.35,596.84,428.2Z" transform="translate(-375.51 -43.23)"/><path class="cls-2" d="M1434.6,404.14c2.53.5,3.6,2.79,5.24,4.36,10,9.54,20.71,18.1,33.92,22.81,17.92,6.38,34.07,1.21,46.49-14.21,7.85-9.74,12.79-21,16.78-32.77,2.6-7.69,4.58-15.54,6.59-23.41a80.77,80.77,0,0,1,.18,21.85c-1.53,13.92-5.51,27-13.21,38.91-7.57,11.7-17.87,19.67-31.53,22.73a42.68,42.68,0,0,1-26.13-2.48c-17.8-7.43-29.93-20.74-38.24-37.84Z" transform="translate(-375.51 -43.23)"/><path class="cls-2" d="M1078.61,905.83h-19.39c0,4.47-.14,9,.07,13.43.1,2.18,1.82,2.46,3.77,2.18s4-.61,4.88,1.76a3.54,3.54,0,0,1-4,4.88,51.24,51.24,0,0,0-17.94,0c-2.08.42-4.28-.6-4.1-3.56.15-2.65,1.83-3.26,4.13-3.22,4.51.09,4.85-.24,4.86-4.67q0-13,0-26c0-4.58-.4-5-4.79-4.71-2.33.13-4-.48-4.2-3.11s1.57-3.77,3.8-3.43c6.13.93,12.21.49,18.32,0,2.44-.21,4.22.79,4,3.62s-2.17,3.27-4.54,3c-3.75-.38-4.27.06-4.33,3.78,0,3,0,5.92,0,9.11h19.38c0-3.32.09-6.76,0-10.2-.08-2.41-1.37-3.28-3.84-2.73-1.84.41-3.92.66-4.81-1.74-1-2.61.41-4.78,3.25-4.81,2.63,0,5.26.42,7.88.63,3.62.3,7.17-.44,10.75-.62,2.45-.12,4.26.8,4.23,3.53,0,3-2.15,3.25-4.48,3.09-4.09-.3-4.45,0-4.47,4.25q0,13.5,0,27c0,4,.43,4.38,4.36,4.14,3.28-.2,4.68.79,4.61,3.27s-2.1,4.08-5,3.42a42,42,0,0,0-16.37-.06c-3.24.53-5.09-1-5-3.66.11-2.5,1.65-3.11,3.86-3.06,4.68.09,4.79.05,5-4.75C1078.76,913.07,1078.61,909.59,1078.61,905.83Z" transform="translate(-375.51 -43.23)"/><path class="cls-2" d="M1136.69,892.08c0,8.47,0,16.94,0,25.41,0,3.57.76,4.13,4.42,3.89,3.48-.22,4.57.55,4.56,3.22s-1.74,4-4.83,3.48a45.28,45.28,0,0,0-15.75,0c-3.17.53-5-.78-5-3.25-.09-2.67,1.32-3.94,4.75-3.33s4.18-1,4.19-3.74c0-9.43,0-18.85,0-28.27,0-2.92-1.2-4.34-4.33-3.69-2.45.51-4.62.07-4.74-3s1.92-3.72,4.46-3.55a70.44,70.44,0,0,0,11.71,0c2.72-.27,4.22,1,5.37,3.4,4.94,10.5,10,20.92,15.08,31.37.21.42.47.82,1.11,2,0-9.67,0-18.51,0-27.34,0-2.21-1.3-3.2-3.58-2.85a8.09,8.09,0,0,1-2.82,0,3,3,0,0,1-2.51-3.17,2.88,2.88,0,0,1,2.5-3.17,8.36,8.36,0,0,1,3.15-.09,37.6,37.6,0,0,0,13.87-.14,5.3,5.3,0,0,1,3.68.55,3.13,3.13,0,0,1,1.41,3.58,2.78,2.78,0,0,1-3.14,2.52c-4.2-.57-4.58,1.9-4.6,5.08,0,9.52-.19,19-.3,28.57a25.77,25.77,0,0,1-.08,3.17c-.35,2.69-.89,5.36-4.11,6.07a6.24,6.24,0,0,1-7.29-3.19c-2.21-4-4.19-8-6.17-12.12-3.5-7.16-6.93-14.36-10.38-21.54Z" transform="translate(-375.51 -43.23)"/><path class="cls-2" d="M921.19,898.51c1.31.09,2.24.21,3.17.22,4,0,4.35-.38,4-4.29-.06-.63,0-1.27-.09-1.9-.19-2.64,1.17-4.07,3.68-4.11s4.13,1.42,3.8,4a65.37,65.37,0,0,0,0,19.55c.35,2.11-1,3.59-3.37,3.69s-3.89-.83-4.06-3.36c0-.74,0-1.48,0-2.22.19-4.47-1.43-5.73-5.8-4.7a1.58,1.58,0,0,0-1.31,1.83c0,3.92.07,7.83.1,11.75,0,1.58.79,2.28,2.37,2.26,4,0,8,0,12.06-.06,3-.09,4.35-1.83,4.29-4.75,0-2.22-.22-4.44-.17-6.65s1.2-3.56,3.53-3.61,4,1,4,3.47c.06,5,.07,9.94-.08,14.9-.08,2.86-2.2,3.78-4.63,3.61a258.48,258.48,0,0,0-34.2,0c-3,.19-4.46-1.17-4.43-3.67,0-3,2-3.25,4.36-3.11,4,.23,4.6-.33,4.62-4.36q.08-13.32,0-26.66c0-4.24-.59-4.73-4.77-4.45-2.29.16-4-.43-4.2-3s1.37-3.79,3.73-3.54c11.52,1.18,23,.15,34.53,0,3.16,0,4.55,1.36,4.36,4.47a69.24,69.24,0,0,0,0,13.58c.27,2-.82,3.42-3,3.65s-4-.67-4.3-3.11-.19-4.64-.22-7c0-2.93-1.33-4.55-4.4-4.55-3.28,0-6.56,0-9.84-.08-2.48,0-3.72,1.1-3.67,3.65C921.24,892.67,921.19,895.4,921.19,898.51Z" transform="translate(-375.51 -43.23)"/><path class="cls-2" d="M1327.2,921c1.93.8,3.84.12,5.71.26,2.09.15,3.36.93,3.42,3.26s-1.25,3.23-3.28,3.39a12.86,12.86,0,0,1-3.16-.19,38.91,38.91,0,0,0-13.57.24,7.83,7.83,0,0,1-2.51.07c-2-.3-3.21-1.42-3-3.67s1.49-3.23,3.34-3c3.29.4,4.36-1.39,5.31-4,4-11.12,8.25-22.15,12.24-33.26,1.12-3.11,2.69-5.25,6.23-5.23s5,2.34,6.07,5.41c3.88,11,8,22,11.89,33,1.05,3,2.47,4.68,6,4.07,2.13-.37,4.11.31,4.23,3,.12,2.9-1.87,3.78-4.17,3.49a88.71,88.71,0,0,0-18.36,0c-2.33.19-4.39-.4-4.42-3.26s1.89-3.41,4.3-3.42c1.45,0,2.94.44,4.77-.26-1-2.85-2-5.7-3.1-8.53-.43-1.13-1.51-1-2.44-1-3.39,0-6.78,0-10.17,0a2.84,2.84,0,0,0-3.19,2.34C1328.66,916.19,1327,918.32,1327.2,921Zm10.37-31.49c-1.89,5.6-3.48,10.3-5.12,15.17h10C1340.92,899.88,1339.41,895.2,1337.57,889.53Z" transform="translate(-375.51 -43.23)"/><path class="cls-2" d="M857.93,879.1c5.38,0,10.77.1,16.16,0,4.55-.11,6.25,1.32,5.75,5.69a47.3,47.3,0,0,0,0,11.71c.32,2.43-.33,4.45-3.39,4.6s-4.26-.93-4.33-4.07c0-2.33.18-4.65.29-7,.14-2.83-1-4.35-4-4.44-4.35-.14-5.62.51-5.72,4-.24,7.72-.22,15.45-.3,23.17,0,1.27,0,2.54,0,3.81,0,4.82.08,4.92,5,4.83,2.22,0,3.79.8,4.05,3.08s-1.34,3.38-3.46,3.65a7,7,0,0,1-2.19-.11,37.33,37.33,0,0,0-15.11.06,6.06,6.06,0,0,1-4-.53c-1.61-.78-1.72-2.29-1.48-3.83a2.61,2.61,0,0,1,2.64-2.28,11.82,11.82,0,0,1,2.85.12c2.19.35,3.31-.7,3.32-2.74.07-9.95.12-19.9,0-29.85,0-3.23-2.52-3.35-5-3.36s-4.51.56-4.48,3.57c0,2.43.33,4.86.31,7.28,0,3.34-1.49,5.07-4,5.06-2.67,0-4.09-1.88-3.78-5.43a59.51,59.51,0,0,0,0-12c-.42-3.6.84-4.78,4.49-4.79,5.49,0,11,0,16.48,0Z" transform="translate(-375.51 -43.23)"/><path class="cls-2" d="M1008.17,881.13a18.59,18.59,0,0,1,.91-1.64c1.08-1.55,2.65-1.68,4.25-1.21a2.89,2.89,0,0,1,2.11,3.16,164.1,164.1,0,0,0-.14,16.45c.15,2.35-1.34,3.55-3.53,3.56s-3.93-.9-4-3.51v-2.23c0-5.68-2-9-6.45-10.4A11.91,11.91,0,0,0,988,889.37c-4.1,5.7-4.23,12.23-3.52,18.85a19.07,19.07,0,0,0,3.08,8.88,12.5,12.5,0,0,0,15.14,4.51c4.3-1.84,6.07-5.28,6.18-9.81.09-3.59,1.15-4.69,4.12-4.59s3.91,1.5,3.77,5c-.41,10.61-9.34,17.86-21,17.05-9.24-.63-15.87-5.66-18.69-14.55-2.68-8.47-2.45-16.94,1.46-25C984.1,878.29,997.2,874.59,1008.17,881.13Z" transform="translate(-375.51 -43.23)"/><path class="cls-2" d="M1280,881.11c.62-2.44,2.25-3.49,4.65-2.91s2.75,2.72,2.51,4.8a68.81,68.81,0,0,0-.19,13.91c.22,2.57-.68,4.41-3.55,4.56s-3.83-1.17-3.86-4.5c-.07-7.32-2.42-10.92-7.79-11.93-6.58-1.23-11.91,1.67-14.25,8.18a30,30,0,0,0,0,20.52,12.35,12.35,0,0,0,10,8.66c6.08,1,13.2-2.73,12.91-10.31-.1-2.51.4-4.72,3.61-4.88,2.93-.15,4.28,1.07,4.42,4,.4,8.51-6.22,16.26-15,17.63-13.43,2.09-23.22-4.84-25.7-18.22a36.28,36.28,0,0,1,.4-15.42C1251.84,880.05,1265.94,873.78,1280,881.11Z" transform="translate(-375.51 -43.23)"/><path class="cls-2" d="M1411.11,928c-6.12-.15-12.26-.61-18.38.15-1.91.24-3.89-.13-4.58-2.47-.78-2.67.72-4.41,3.72-4.33,4.77.12,5.2-.26,5.21-5q0-12.69,0-25.4c0-4.79-.28-5-5.21-4.91-2.21,0-3.75-.91-3.85-3.25s1.3-3.54,3.57-3.44c2.74.11,5.48.41,8.21.68,3.42.34,6.73-.69,10.11-.71,3.08,0,4.7,1.27,4.41,3.62-.34,2.77-2.25,3.19-4.64,3-3.67-.34-4.3.22-4.31,3.9,0,9.43,0,18.85,0,28.27,0,2.41.75,3.5,3.27,3.4,3.49-.14,7,0,10.47-.11,3.68-.15,4.63-1.14,4.78-4.85.09-2.22,0-4.44-.06-6.67a3.23,3.23,0,0,1,3.5-3.61c2.36,0,4.41.95,4.16,3.64-.46,5-.56,9.9-.55,14.87,0,2.76-2.29,3.25-4.55,3.26C1421.26,928,1416.19,928,1411.11,928Z" transform="translate(-375.51 -43.23)"/><path class="cls-2" d="M1205.41,903.46c0-4.55,0-9.09,0-13.64-.05-3.74-.65-4.23-4.29-4-3.21.21-4.71-.79-4.68-3.22,0-2.89,2-3.63,4.33-3.31a66.66,66.66,0,0,0,17.68,0c2.37-.31,4.26.54,4.31,3.35,0,2.34-1.64,3.42-4.73,3.19-3.54-.27-4.29.29-4.32,4q-.1,13.82,0,27.61c0,3.62.73,4.13,4.35,3.94,3.46-.18,4.87.87,4.7,3.48-.16,2.34-2.24,3.87-5.16,3.26a37.79,37.79,0,0,0-16,0,4.4,4.4,0,0,1-4.37-1.23,3.45,3.45,0,0,1-.48-3.87c.63-1.51,2-1.7,3.43-1.69,5.13.05,5.24-.06,5.25-5.15C1205.42,911.92,1205.41,907.69,1205.41,903.46Z" transform="translate(-375.51 -43.23)"/><path class="cls-2" d="M1531.69,248.12c.1.44.21.88.34,1.42-.89,0-.79-.58-.94-1Z" transform="translate(-375.51 -43.23)"/><path class="cls-2" d="M1434.69,404.09c-.4,0-.52-.25-.47-.59,0,0,.36-.1.43,0s.41.48-.05.67Z" transform="translate(-375.51 -43.23)"/><path class="cls-1" d="M977.43,53.07c13.22-.11,26.71.39,40.2,1.1a279.42,279.42,0,0,1,33.06,3.77c10.45,1.79,20.19,6.1,30,9.81,28.32,10.69,56.1,22.69,83.61,35.33,32,14.71,63.46,30.62,95,46.28,41.49,20.58,83.85,39.27,126,58.42l24.92,11.32-2.35,7.63c-12.75-5.23-25.33-10.28-37.83-15.54-39.66-16.71-79.15-33.82-117.83-52.71-21.8-10.65-43.06-22.38-64.84-33.06Q1136.55,100.49,1085,77a270.56,270.56,0,0,0-31.18-12.3,180.86,180.86,0,0,0-30.37-6.26c-14.16-1.86-28.33-3.53-42.57-4.61A22.06,22.06,0,0,1,977.43,53.07Z" transform="translate(-375.51 -43.23)"/><path class="cls-1" d="M1508.28,295.6c1.62,22.44,1.36,44.18-6.84,65.09a45.43,45.43,0,0,1-7.92,13.26c-6.54,7.56-14.88,9.77-24.29,6.25-8.85-3.31-15.71-9.36-21.84-16.33-1.67-1.91-3.29-3.87-5-5.83a3.63,3.63,0,0,1,1.57-3c6.5-4,8.39-10.67,9.63-17.45.66-3.64,1.82-5.92,5.57-7.16a43.39,43.39,0,0,0,13.64-7.88c5.31-4.35,8.15-9.63,6.42-16.69a11.76,11.76,0,0,1-.21-1.89,3.25,3.25,0,0,1,.19-.76A270.05,270.05,0,0,0,1508.28,295.6Z" transform="translate(-375.51 -43.23)"/><path class="cls-1" d="M1176,362.32c-2.68.28-4.67-.95-6.76-1.85-43.72-18.77-86.88-38.78-130.47-57.81q-25.95-11.32-52.37-21.47c-15.53-6-31.46-7.92-47.89-7.31q-36.3,1.33-72.59,2.59a3.43,3.43,0,0,1-2.28-.54c5-.88,10.07-1.79,15.12-2.64a727.38,727.38,0,0,1,72.4-8.57c13.39-.88,26,2.08,38.53,6.25,28.48,9.51,55.79,21.82,82.76,34.9q51,24.74,99.63,54C1173.45,360.62,1174.73,361.49,1176,362.32Z" transform="translate(-375.51 -43.23)"/><path class="cls-1" d="M1427.28,359.81c-5.5,9.52-10.54,18.29-15.61,27.05-6.82,11.78-13.72,23.53-20.44,35.37-1.19,2.1-2.21,2.42-4.43,1.6-7.1-2.63-14.3-5-21.7-7.55,1-6.81,2-13.48,3.08-20.14.72-4.59,1.63-9.16,2.18-13.77a3.34,3.34,0,0,1,2.31-3.15c6.18-2.72,12.19-5.78,18.11-9,3.82-2.09,8.24-2.57,12.39-3.74C1410.88,364.28,1418.61,362.19,1427.28,359.81Z" transform="translate(-375.51 -43.23)"/><path class="cls-1" d="M655.3,304.11c2.64-6.67,5.56-12.72,8.63-18.7,8.67-16.85,18.4-33,30.46-47.71a36.69,36.69,0,0,1,10.72-9.28c7.54-4.08,14.92-3.92,22.15.86s12.52,11.29,17.62,18.07c8.08,10.74,14.68,22.44,22,33.71,5.61,8.7,11.23,17.39,17.27,25.8.64.89,1.68,1.7,1,3.29a347.76,347.76,0,0,1-23.23-26c-9.93-12.36-19-25.43-29.83-37.05a48.88,48.88,0,0,0-10.13-8.57c-4.35-2.67-8.51-2.51-12.69.49a41.59,41.59,0,0,0-8.3,8.67c-13.18,17-24.32,35.28-34.39,54.24-1.21,2.27-2.35,3.43-5.07,2.73A38.78,38.78,0,0,0,655.3,304.11Z" transform="translate(-375.51 -43.23)"/><path class="cls-1" d="M1247.41,531.2c-.05,7.87-2.66,14.68-8.49,20.1-7.82,7.27-18.75,6.88-26-.86-10.51-11.18-7.47-32.15,5.77-39.84a17.71,17.71,0,0,1,22.9,3.94A24.53,24.53,0,0,1,1247.41,531.2Z" transform="translate(-375.51 -43.23)"/><path class="cls-1" d="M1418.18,330.18c-6.75-13-10-26.84-12.07-41.31l-35.56-3.62c.17-7.83.69-15.56,2.92-23.12.52-1.76,1.6-1.91,3.06-2,11.81-.7,23.61-1.45,35.42-2.18l10.13-.63C1414.16,281.36,1412.11,305.55,1418.18,330.18Z" transform="translate(-375.51 -43.23)"/><path class="cls-1" d="M602.56,312.41c4-2,9.05-2.52,14-2.91,23.52-1.85,46.91-.05,70.25,2.9a399.19,399.19,0,0,1,52,9.75,11.72,11.72,0,0,1,1.17.56C693.34,323.48,647.93,315.67,602.56,312.41Z" transform="translate(-375.51 -43.23)"/><path class="cls-1" d="M1436.15,460.17l7.57-4c-25.06-5.59-49-12.54-71.54-24.15,2.6.29,5.2.53,7.8.87s5.45.7,8.14,1.23a390.54,390.54,0,0,1,63.84,18c1.51.57,3.17.95,3,3s-1.94,2.57-3.61,2.88c-5,.91-10,1.74-15,2.6Z" transform="translate(-375.51 -43.23)"/><path class="cls-1" d="M1439.76,297.1c-1.76-4.71-3.4-9.13-5-13.52,7.51-6.07,28.78.83,35.89,11.92C1460.16,294.82,1450.09,296,1439.76,297.1Z" transform="translate(-375.51 -43.23)"/><path class="cls-1" d="M1435.8,237.93a14.6,14.6,0,0,1,3.1-6c13.89,6.48,27.74,12.9,41.55,19.4,6.68,3.14,13.27,6.46,19.94,9.6,1.49.7,2.52,1.43,2.1,3.51Z" transform="translate(-375.51 -43.23)"/><path class="cls-1" d="M643.29,344.07l4.24,1.49c-2.69,8.86-4.65,17.69-3.87,27.22C640.85,367.12,640.71,350.93,643.29,344.07Z" transform="translate(-375.51 -43.23)"/><path class="cls-1" d="M1417.26,230.42c1-2.5,1.8-4.62,2.7-6.92l9.06,4.09c-1.29,2-2.5,3.87-3.84,6Z" transform="translate(-375.51 -43.23)"/><path class="cls-1" d="M1519.73,271.26c-2.7-1.36-6.06-1.33-8.55-4.56C1514.85,267.79,1517.26,269.68,1519.73,271.26Z" transform="translate(-375.51 -43.23)"/><path class="cls-1" d="M1117.53,634.71a21.8,21.8,0,0,1,1.36-8.32c.38-1.1.79-2.33,2.19-2.39a2.86,2.86,0,0,1,2.79,2.19,19.56,19.56,0,0,1,.94,3.65,30.94,30.94,0,0,1-.93,13.46c-.38,1.43-.65,3.52-2.62,3.46-1.68,0-2-1.89-2.51-3.28A26,26,0,0,1,1117.53,634.71Z" transform="translate(-375.51 -43.23)"/><path class="cls-1" d="M1290.63,668.78a45.33,45.33,0,0,1-2.33,11.38c-1,2.68-2.48,3-4.42,1-4.41-4.51-3.3-13.33,2.09-16.7,1.85-1.16,3.12-.72,4.08,1.2A5.28,5.28,0,0,1,1290.63,668.78Z" transform="translate(-375.51 -43.23)"/><path class="cls-1" d="M952.47,710.54c-4.75-5.16-4.65-17.24-.45-22.32,1-1.24,1.92-1.15,2.6.33a9.83,9.83,0,0,1,1,4C955.75,698.56,954.12,704.3,952.47,710.54Z" transform="translate(-375.51 -43.23)"/><path class="cls-1" d="M1161.92,663.78a1,1,0,0,1,1.44-.33l-.76.89Z" transform="translate(-375.51 -43.23)"/><path class="cls-1" d="M1337.57,889.53c1.84,5.67,3.35,10.35,4.91,15.17h-10C1334.09,899.83,1335.68,895.13,1337.57,889.53Z" transform="translate(-375.51 -43.23)"/></svg>
