<svg id="Layer_1" xmlns="http://www.w3.org/2000/svg" viewBox="0 0 718.7 292.7"><style>.st0{fill:#50c6db}</style><path class="st0" d="M146 82.3c-35.2 0-63.8 28.6-63.8 63.8s28.6 63.8 63.8 63.8 63.8-28.6 63.8-63.8-28.5-63.8-63.8-63.8zm-17.1 9c5.4-1.7 11.1-2.6 17.1-2.6 6.2 0 12.2 1 17.8 2.8-3.7 2.5-6.3 6-7.7 10.2-2.4 7.3.1 14 2.4 19.8l.2.6c1.3 3.5 1.9 7.9-1.4 11-1.4-1.2-2.9-2.2-4.7-3 .5-7.2-3.7-13.5-11.7-17.2l-.6-.3c-5.3-2.4-9.9-4.5-12.1-8.8-2.5-4.8-1.1-9.3.6-12.4l.1-.1zm26.2 54.6c0 5-4 9-9 9s-9-4-9-9 4-9 9-9 9 4.1 9 9zm-36-50.5c-.7 4.2 0 8.4 2 12.2 3.6 6.8 10.1 9.8 15.9 12.4l.6.3c3.4 1.5 7 4.2 7.1 8.6-1.9.1-3.7.6-5.4 1.3-4.8-5.5-12.3-7.1-20.6-4.2l-.7.2c-5.4 2-10.1 3.7-14.9 2.1-4.8-1.5-7.2-5.3-8.3-8.3 5.4-10.3 13.8-19 24.3-24.6zM91.2 163c-1.6-5.3-2.5-11-2.5-16.9 0-5.7.9-11.3 2.4-16.5 2.5 3.1 5.8 5.3 9.6 6.5 7.4 2.4 14.1 0 20.1-2.2l.7-.2c3.6-1.3 8.2-1.9 11.5 1.5-1.1 1.3-2 2.8-2.6 4.4-7.5-.7-14.1 3.3-17.8 11.3l-.3.6c-2.4 5.1-4.5 9.6-8.9 11.8-4.5 2.2-9 1.1-11.9-.2l-.3-.1zm27.3 33.4c-10-5.5-18.2-13.9-23.5-24.1.9.1 1.8.2 2.7.2 3.2 0 6.2-.7 9.1-2.1 7-3.4 10-9.9 12.6-15.5l.3-.6c1.6-3.4 4.5-7.1 9.4-6.8.2 1.7.6 3.4 1.2 4.9-5.8 4.7-7.5 12.2-4.3 20.5l.2.7c2 5.3 3.8 9.9 2.3 14.5-1.7 5.1-6 7.3-9.4 8.3h-.6zm44.8 4.4c-5.5 1.7-11.3 2.7-17.3 2.7-6.1 0-12.1-1-17.6-2.8 3.7-2.5 6.3-6 7.7-10.2 2.4-7.3-.1-14-2.4-19.8l-.2-.6c-1.3-3.5-2-8 1.6-11.2 1.4 1.2 2.9 2.1 4.5 2.8-.7 7.3 3.5 13.8 11.7 17.5l.6.3c5.3 2.4 9.9 4.5 12.1 8.8 2.5 4.8 1.1 9.3-.6 12.4.1-.1.1.1-.1.1zm9.9-4.2c.6-4.2-.1-8.3-2-12.1-3.6-6.8-10.1-9.8-15.9-12.4l-.6-.3c-3.5-1.6-7.2-4.4-7.1-9 1.8-.2 3.5-.6 5.1-1.2 4.8 5.7 12.4 7.5 20.8 4.5l.7-.2c5.4-2 10.1-3.7 14.9-2.1 4.7 1.5 7.1 5.1 8.2 8.1-5.3 10.4-13.7 19.1-24.1 24.7zm30.2-50.5c0 5.7-.8 11.2-2.4 16.4-2.5-3-5.7-5.2-9.5-6.4-7.4-2.4-14.1 0-20.1 2.2l-.7.2c-3.7 1.3-8.4 1.9-11.7-1.7 1.1-1.3 1.9-2.7 2.6-4.2.7.1 1.3.1 1.9.1 6.8 0 12.6-4.1 16.1-11.4l.3-.6c2.4-5.1 4.5-9.6 8.9-11.8 4.5-2.2 9-1.2 12 .2 1.7 5.4 2.6 11.1 2.6 17zm-18-24.3c-7 3.4-10 9.9-12.6 15.5l-.3.6c-1.6 3.5-4.5 7.2-9.5 6.8-.1-1.7-.5-3.4-1.1-4.9 5.8-4.7 7.5-12.2 4.3-20.5l-.3-.7c-2-5.3-3.8-9.9-2.3-14.5 1.7-5.1 6-7.3 9.4-8.3l.4-.1c10 5.5 18.2 13.9 23.5 24.1-3.9-.5-7.9.2-11.5 2z"/><path class="st0" d="M146 64.8c-44.9 0-81.3 36.4-81.3 81.3s36.4 81.3 81.3 81.3 81.3-36.4 81.3-81.3-36.4-81.3-81.3-81.3zm0 152.3c-39.2 0-71.1-31.9-71.1-71.1s32-71 71.1-71c39.2 0 71.1 31.9 71.1 71.1s-31.9 71-71.1 71zm67.6-138c-7.6-7.7-17.4-13.3-26.2-15.1-.5-.1-1.1.2-1.3.7-.2.5.1 1.1.6 1.3 8.3 3.8 16.4 9.5 23.3 16.5 7 7.1 12.7 15.2 16.4 23.6.2.4.6.7 1 .7.1 0 .2 0 .3-.1.5-.2.9-.7.7-1.3-1.8-9.1-7.1-18.6-14.8-26.3zm-108.5 147c-8.3-3.8-16.4-9.5-23.3-16.5-7-7.1-12.7-15.2-16.4-23.6-.2-.5-.8-.8-1.3-.6-.5.2-.9.7-.7 1.3 1.9 9.3 7.2 18.7 14.9 26.5 7.6 7.7 17.4 13.3 26.2 15.1h.2c.5 0 .9-.3 1-.8.2-.6-.1-1.2-.6-1.4zm187.7-112.3h-30c-1 0-1.8.8-1.8 1.8v61.6c0 1 .8 1.8 1.8 1.8h6c1 0 1.8-.8 1.8-1.8V151H290c1 0 1.8-.8 1.8-1.8v-6c0-1-.8-1.8-1.8-1.8h-19.4v-18.2h22.2c1 0 1.8-.8 1.8-1.8v-6c0-.9-.8-1.6-1.8-1.6zm46.3 55.6h-22.2v-53.9c0-1-.8-1.8-1.8-1.8h-6c-1 0-1.8.8-1.8 1.8v61.6c0 1 .8 1.8 1.8 1.8h30c1 0 1.8-.8 1.8-1.8v-6c-.1-.9-.9-1.7-1.8-1.7zm41.9-55.9h-6.7c-.6 0-1.2.4-1.5.9l-13.6 25.1-13.8-25.1c-.3-.6-.9-.9-1.5-.9h-6.7c-.6 0-1.2.3-1.5.9-.3.5-.3 1.2 0 1.7l18.7 34.4v26.6c0 1 .8 1.8 1.8 1.8h6c1 0 1.8-.8 1.8-1.8v-26l18.7-35.1c.3-.5.3-1.2 0-1.7-.5-.4-1.1-.8-1.7-.8zm269.6 55.9h-22.2v-53.9c0-1-.8-1.8-1.8-1.8h-6c-1 0-1.8.8-1.8 1.8v61.6c0 1 .8 1.8 1.8 1.8h30c1 0 1.8-.8 1.8-1.8v-6c0-.9-.8-1.7-1.8-1.7zm-143.5-55.6h-6c-1 0-1.8.8-1.8 1.8v25.9h-21.5v-25.9c0-1-.8-1.8-1.8-1.8h-6c-1 0-1.8.8-1.8 1.8v61.6c0 1 .8 1.8 1.8 1.8h6c1 0 1.8-.8 1.8-1.8V151h21.5v26.2c0 1 .8 1.8 1.8 1.8h6c1 0 1.8-.8 1.8-1.8v-61.6c-.1-1.1-.9-1.8-1.8-1.8zm48.3 0H525c-1 0-1.8.8-1.8 1.8v61.6c0 1 .8 1.8 1.8 1.8h30.4c1 0 1.8-.8 1.8-1.8v-6c0-1-.8-1.8-1.8-1.8h-22.6V151h19.7c1 0 1.8-.8 1.8-1.8v-6c0-1-.8-1.8-1.8-1.8h-19.7v-18.2h22.6c1 0 1.8-.8 1.8-1.8v-6c0-.9-.8-1.6-1.8-1.6zm47.9 0H573c-1 0-1.8.8-1.8 1.8v61.6c0 1 .8 1.8 1.8 1.8h30.4c1 0 1.8-.8 1.8-1.8v-6c0-1-.8-1.8-1.8-1.8h-22.6V151h19.8c1 0 1.8-.8 1.8-1.8v-6c0-1-.8-1.8-1.8-1.8h-19.8v-18.2h22.6c1 0 1.8-.8 1.8-1.8v-6c-.1-.9-.9-1.6-1.9-1.6zm-147.2-.1h-6.6c-.6 0-1.1.4-1.2 1l-10.1 43.6-10.3-43.7c-.1-.6-.6-1-1.2-1H420c-.6 0-1.1.4-1.2 1l-10.3 43.6-10.1-43.6c-.1-.6-.6-1-1.2-1h-6.6c-.4 0-.7.2-1 .5-.2.3-.3.7-.2 1.1l14.6 62.7c0 .2.1.4.3.6.2.3.6.5 1 .5h6.6c.6 0 1.1-.4 1.2-1l10.4-43.8 10.3 43.8c.1.6.6 1 1.2 1h6.6c.6 0 1.1-.4 1.2-1l14.6-62.8c.1-.4 0-.8-.2-1.1-.4-.2-.8-.4-1.1-.4z"/></svg>