<?xml version="1.0" encoding="utf-8"?>
<!-- Generator: Adobe Illustrator 21.1.0, SVG Export Plug-In . SVG Version: 6.00 Build 0)  -->
<svg version="1.1" id="Layer_1" xmlns="http://www.w3.org/2000/svg" xmlns:xlink="http://www.w3.org/1999/xlink" x="0px" y="0px"
	 viewBox="0 0 90 87.1" style="enable-background:new 0 0 90 87.1;" xml:space="preserve">
<style type="text/css">
	.st0{fill:#F58025;}
	.st1{fill:#002B5C;}
	.st2{fill:url(#SVGID_1_);}
	.st3{fill:url(#SVGID_2_);}
	.st4{font-family:'LeagueGothic-Regular';}
	.st5{font-size:12.7794px;}
</style>
<g>
	<g>
		<g>
			<path class="st0" d="M66.7,13.8L66.7,13.8L66.7,13.8L66.7,13.8l-10.9,0c0,0,0,0,0,0h-0.1c-0.1,1.1-0.3,1.3-0.9,2.1l-10,13.4
				c-0.4-0.6-10.1-13.7-10.2-13.9c-0.2-0.4-0.3-0.8-0.4-1.6H23v0h-0.1v0h-2.3V15h0.1c1.4,0,1.7,0.8,2.2,1.9c0.2,0.6,0,1.5,0.1,2.1
				l0,13.9c0,0,0,0,0,0c7.2,1.8,14.5,0.5,22.2-0.3c8-0.8,15.1-0.4,21.3,0.9c0,0,0.1,0,0.1,0l0-16.1c0-0.1,0-0.2,0.1-0.3v0
				c0.5-1.3,1.1-2.2,2.8-2.2h0.1v-1.1H66.7z"/>
			<path class="st1" d="M69.7,52.7L69.7,52.7c-1.7,0-2.2-0.8-2.7-2.2c0,0-0.4-1.5-0.4-2.4l0-13.1c-6.4-1.4-13.6-1.9-21-0.9
				c-8.3,1.2-14.7,5-22.6,5l0,8.3c0,0.9,0,2.3-0.2,3.1c-0.5,1.3-0.6,2.2-2.2,2.2h-0.1v1.1H21c0,0,0,0,0,0l15.2,0l0.1-11.7l8.9,11.1
				l8.4-10.9l0,11.5h14.2h0.4h0.2c0,0,0,0-0.2,0h1.6V52.7z"/>
		</g>
		<g>
			<path class="st1" d="M47.5,62.7c0.4,0,0.6-0.2,0.8-0.6l1.9-4.8c0.1-0.4,0.4-0.8,0.4-0.8h1v0c0,0.1,0,0.2,0.1,0.5l2,5.2
				c0.2,0.5,0.3,0.6,0.7,0.6v0.4H52v-0.4c0.3,0,0.5-0.1,0.5-0.3c0-0.1,0-0.2-0.1-0.3L52.4,62l-0.5-1.3h-2.5L48.9,62
				c-0.1,0.2-0.1,0.3-0.1,0.4c0,0.2,0.2,0.3,0.5,0.3h0v0.4h-1.9V62.7z M51.7,60.3l-1.1-2.9l-1.1,2.9H51.7z"/>
			<path class="st1" d="M20.7,62.7L20.7,62.7c0.2,0,0.4,0,0.5-0.1c0.2-0.1,0.2-0.3,0.2-0.7l0-4.1c0-0.6-0.3-0.9-0.8-0.9h0v-0.4h1.6
				l2.8,5.3l2.6-5.3h1.6v0.4h-0.1c-0.5,0-0.7,0.1-0.7,0.6V62v0.4c0,0.2,0.3,0.4,0.7,0.4h0v0.4h-2.8v-0.4h0c0.7,0,0.8-0.1,0.8-0.7
				v-3.9l-2.4,5h-0.6l-2.5-4.9l0,3.7c0,0.5,0,0.7,0.2,0.8c0.1,0,0.2,0.1,0.4,0.1h0v0.4h-1.9V62.7z"/>
			<path class="st1" d="M30,62.7L30,62.7c0.6,0,0.8-0.1,0.8-0.6v-4.8c0-0.4-0.2-0.6-0.7-0.6h0v-0.4h2.7v0.4h0
				c-0.5,0-0.7,0.1-0.7,0.6v4.8c0,0.4,0.2,0.6,0.7,0.6h0v0.4H30V62.7z"/>
			<path class="st1" d="M33.5,62.7L33.5,62.7c0.6,0,0.8-0.1,0.8-0.6v-4.8c0-0.4-0.2-0.6-0.7-0.6h0v-0.4h3.4c1,0,1.6,0.1,2.1,0.4
				c1.1,0.6,1.7,1.6,1.7,2.9c0,2-1.5,3.4-3.6,3.4h-3.7V62.7z M35.6,62.5c0.1,0.1,0.5,0.2,0.9,0.2c1.8,0,2.9-1.1,2.9-2.9
				c0-0.9-0.3-1.6-0.8-2.1c-0.6-0.6-1.2-0.9-2.2-0.9c-0.4,0-0.6,0-0.8,0.1c-0.1,0-0.1,0-0.2,0.1c0,0-0.1,0.1-0.1,0.2v0.3v4.8
				C35.4,62.3,35.5,62.5,35.6,62.5z"/>
			<path class="st1" d="M41.4,62.7L41.4,62.7c0.6,0,0.8-0.1,0.8-0.6v-4.8c0-0.4-0.2-0.6-0.7-0.6h0v-0.4h2.7v0.4h0
				c-0.6,0-0.7,0.1-0.7,0.6v4.8c0,0.5,0.2,0.6,1,0.6c0.4,0,0.8,0,1.1-0.1c0.2,0,0.4-0.1,0.7-0.3c0.4-0.2,0.6-0.4,0.9-0.8l0,0
				l0.3,0.2c-0.2,0.5-0.4,0.9-0.7,1.1c-0.1,0.1-0.2,0.2-0.3,0.2c-0.1,0-0.2,0.1-0.3,0.1h-0.3h-4.3V62.7z"/>
			<path class="st1" d="M55,62.7L55,62.7c0.4,0,0.6,0,0.6-0.1c0.1-0.1,0.1-0.3,0.1-0.6l0-4.1c0-0.7-0.3-1-0.7-1h0v-0.4h1.6l4.7,5.2
				l0-4.1c0-0.6-0.1-0.8-0.7-0.8h-0.1v-0.4h1.9v0.4c-0.6,0-0.8,0.2-0.8,0.8l0,5.5l-0.7,0l-4.8-5.4l0,4.2c0,0.6,0.1,0.8,0.7,0.8h0
				v0.4H55V62.7z"/>
			<path class="st1" d="M63.2,62.7L63.2,62.7c0.6,0,0.8-0.1,0.8-0.6v-4.8c0-0.4-0.2-0.6-0.7-0.6h0v-0.4h3.4c1,0,1.6,0.1,2.1,0.4
				c1.1,0.6,1.7,1.6,1.7,2.9c0,2-1.5,3.4-3.6,3.4h-3.7V62.7z M65.3,62.5c0.1,0.1,0.5,0.2,0.9,0.2c1.8,0,2.9-1.1,2.9-2.9
				c0-0.9-0.3-1.6-0.8-2.1c-0.6-0.6-1.2-0.9-2.2-0.9c-0.4,0-0.6,0-0.8,0.1c-0.1,0-0.1,0-0.2,0.1c0,0-0.1,0.1-0.1,0.2v0.3v4.8
				C65.2,62.3,65.2,62.5,65.3,62.5z"/>
			<g>
				<path class="st1" d="M21.6,64.5h0.9v0.1h0c-0.2,0-0.3,0-0.3,0.2v1.3c0,0.2,0.1,0.3,0.2,0.4c0.1,0.1,0.3,0.2,0.5,0.2
					c0.2,0,0.3,0,0.5-0.1c0.2-0.1,0.3-0.3,0.3-0.5v-1.2c0-0.1-0.1-0.2-0.2-0.2h0v-0.1h0.6v0.1h0c-0.2,0-0.2,0.1-0.2,0.2v1.2
					c0,0.3-0.1,0.5-0.3,0.6c-0.2,0.1-0.4,0.2-0.7,0.2c-0.2,0-0.4,0-0.6-0.1c-0.1,0-0.2-0.1-0.3-0.2c-0.1-0.1-0.2-0.3-0.2-0.5v-1.2
					c0-0.1-0.1-0.2-0.3-0.2h0V64.5z"/>
				<path class="st1" d="M27.1,66.7L27.1,66.7c0.1,0,0.2,0,0.2,0c0,0,0-0.1,0-0.2l0-1.4c0-0.2-0.1-0.4-0.3-0.4h0v-0.1h0.5l1.6,1.8
					l0-1.4c0-0.2,0-0.3-0.2-0.3h0v-0.1h0.7v0.1c-0.2,0-0.3,0.1-0.3,0.3l0,1.9l-0.2,0L27.5,65l0,1.4c0,0.2,0,0.3,0.2,0.3h0v0.1h-0.7
					V66.7z"/>
				<path class="st1" d="M32.8,66.7L32.8,66.7c0.2,0,0.3,0,0.3-0.2v-1.7c0-0.1-0.1-0.2-0.2-0.2h0v-0.1h0.9v0.1h0
					c-0.2,0-0.3,0-0.3,0.2v1.7c0,0.1,0.1,0.2,0.3,0.2h0v0.1h-0.9V66.7z"/>
				<path class="st1" d="M36.7,64.5h0.9v0.1h0h-0.1c-0.1,0-0.1,0-0.1,0.1c0,0,0,0.1,0,0.1l0.6,1.5l0.6-1.5c0,0,0-0.1,0-0.1
					c0-0.1,0-0.1-0.2-0.1h0v-0.1H39v0.1h0c-0.1,0-0.1,0-0.1,0c-0.1,0-0.1,0.1-0.2,0.2l-0.7,2l-0.2,0l-0.8-2
					c-0.1-0.1-0.1-0.2-0.3-0.2h0V64.5z"/>
				<path class="st1" d="M42,66.7L42,66.7c0.2,0,0.3,0,0.3-0.2v-1.7c0-0.1-0.1-0.2-0.3-0.2h0v-0.1H44l0.1,0.4L44,65l0,0
					c0,0-0.1-0.1-0.1-0.1c-0.1-0.1-0.2-0.1-0.3-0.2c-0.1,0-0.3,0-0.4,0c-0.2,0-0.3,0-0.3,0c0,0-0.1,0.1-0.1,0.2l0,0.1v0.6h0.4
					c0.3,0,0.4-0.1,0.4-0.3h0.1c0,0.2,0,0.3,0,0.4c0,0.1,0,0.2,0,0.4h-0.1l0,0c0-0.1,0-0.1-0.1-0.2c0-0.1-0.1-0.1-0.4-0.1h-0.4v0.8
					c0,0.2,0.1,0.2,0.4,0.2c0.5,0,0.8-0.1,1-0.4l0.1,0.1c-0.1,0.2-0.1,0.3-0.2,0.4c0,0-0.1,0.1-0.1,0.1c0,0-0.1,0-0.1,0h-0.1H42
					V66.7z"/>
				<path class="st1" d="M47.2,66.7L47.2,66.7c0.2,0,0.3,0,0.3-0.2v-1.7c0-0.1-0.1-0.2-0.3-0.2h0v-0.1h1.1c0.3,0,0.4,0,0.5,0.1
					c0.2,0.1,0.3,0.3,0.3,0.5c0,0.2-0.1,0.3-0.2,0.5c-0.1,0.1-0.3,0.2-0.6,0.2h0c0.1,0,0.1,0,0.2,0.1c0.1,0.1,0.4,0.3,0.6,0.6
					c0.2,0.3,0.2,0.3,0.3,0.3v0.1h-0.4c-0.1,0-0.3-0.2-0.5-0.4L48.2,66c0,0-0.1-0.1-0.1-0.1c-0.1-0.1-0.1-0.1-0.2-0.2
					c-0.1,0-0.1,0-0.1,0v0.8c0,0.1,0,0.1,0.1,0.2c0,0,0.1,0,0.2,0h0v0.1h-0.9V66.7z M47.9,65.6c0,0,0.1,0.1,0.2,0.1
					c0.4,0,0.7-0.2,0.7-0.5c0-0.3-0.2-0.5-0.7-0.5c-0.1,0-0.2,0-0.2,0c0,0,0,0.1,0,0.2v0.6C47.8,65.5,47.8,65.5,47.9,65.6z"/>
				<path class="st1" d="M52.5,66.1c0.1,0.2,0.2,0.3,0.3,0.4c0.2,0.1,0.3,0.2,0.5,0.2c0.3,0,0.5-0.2,0.5-0.5c0-0.2-0.1-0.3-0.3-0.4
					L53,65.7c-0.3-0.1-0.4-0.3-0.4-0.6c0-0.4,0.3-0.6,0.8-0.6c0.1,0,0.1,0,0.2,0c0.1,0,0.2,0.1,0.4,0.2l0,0L54,65l-0.1,0
					c-0.1-0.3-0.3-0.5-0.6-0.5c-0.3,0-0.5,0.2-0.5,0.4c0,0.1,0.1,0.2,0.3,0.3l0.5,0.2c0.3,0.1,0.5,0.4,0.5,0.7
					c0,0.4-0.4,0.7-0.9,0.7c-0.1,0-0.2,0-0.3,0l-0.2-0.1c0,0,0,0,0,0c0,0-0.1,0-0.1,0.1l-0.1,0l-0.2-0.7L52.5,66.1z"/>
				<path class="st1" d="M57.2,66.7L57.2,66.7c0.2,0,0.3,0,0.3-0.2v-1.7c0-0.1-0.1-0.2-0.3-0.2h0v-0.1h0.9v0.1h0
					c-0.2,0-0.3,0-0.3,0.2v1.7c0,0.1,0.1,0.2,0.3,0.2h0v0.1h-0.9V66.7z"/>
				<path class="st1" d="M61.8,66.7L61.8,66.7c0.2,0,0.3,0,0.3-0.2v-1.9h-0.4c-0.1,0-0.2,0-0.3,0.1c-0.1,0.1-0.1,0.1-0.2,0.3l-0.1,0
					l0.1-0.5h2.1l0.1,0.5l-0.1,0c0-0.1,0-0.1-0.1-0.1c-0.1-0.1-0.3-0.2-0.4-0.2h-0.4v1.9c0,0.1,0.1,0.2,0.3,0.2h0v0.1h-1V66.7z"/>
				<path class="st1" d="M67.1,66.7L67.1,66.7c0.2,0,0.3,0,0.3-0.2v-0.7c0-0.1,0-0.1-0.1-0.2l-0.6-0.7c-0.1-0.2-0.2-0.2-0.3-0.2h0
					v-0.1h0.9v0.1h0l0,0c-0.1,0-0.1,0-0.1,0.1c0,0,0,0,0,0.1l0.5,0.8l0.5-0.8c0,0,0-0.1,0-0.1c0,0,0-0.1-0.1-0.1h0v-0.1h0.6v0.1h0
					c-0.1,0-0.2,0.1-0.3,0.2l-0.6,0.9v0.8c0,0.1,0.1,0.2,0.3,0.2h0v0.1h-0.9V66.7z"/>
			</g>
		</g>
	</g>
	<linearGradient id="SVGID_1_" gradientUnits="userSpaceOnUse" x1="56.459" y1="73.1618" x2="74.0586" y2="73.1618">
		<stop  offset="0" style="stop-color:#002B5C;stop-opacity:0.5"/>
		<stop  offset="0.9939" style="stop-color:#FFFFFF;stop-opacity:0"/>
	</linearGradient>
	<rect x="56.5" y="73" class="st2" width="17.6" height="0.3"/>
	
		<linearGradient id="SVGID_2_" gradientUnits="userSpaceOnUse" x1="4498.3545" y1="412.7365" x2="4517.3359" y2="412.7365" gradientTransform="matrix(-1 0 0 -1 4533.9551 485.8984)">
		<stop  offset="0" style="stop-color:#002B5C;stop-opacity:0.5"/>
		<stop  offset="0.9939" style="stop-color:#FFFFFF;stop-opacity:0"/>
	</linearGradient>
	<rect x="16.6" y="73" class="st3" width="19" height="0.3"/>
	<text transform="matrix(1.0638 0 0 1 36.7334 78.3408)" class="st1 st4 st5">CODE</text>
</g>
</svg>
