<?xml version="1.0" encoding="utf-8"?>
<!-- Generator: Adobe Illustrator 21.0.0, SVG Export Plug-In . SVG Version: 6.00 Build 0)  -->
<svg version="1.1" id="logo.fw-Page_x25_202" xmlns="http://www.w3.org/2000/svg" xmlns:xlink="http://www.w3.org/1999/xlink"
	 x="0px" y="0px" viewBox="0 0 521 146" style="enable-background:new 0 0 521 146;" xml:space="preserve">
<style type="text/css">
	.st0{opacity:0.4;fill:#5CDBDD;enable-background:new    ;}
	.st1{fill:#5CDBDD;}
	.st2{fill:#333333;}
</style>
<g id="Layer_x25_201">
	<g>
		<g>
			<path class="st0" d="M69.6,55.1l-18.4,2.1L29.9,78.4c-3.8,3.8-8.2,2.3-7.7,3.1l20.4-1.8l21.9-21.8C66,56.5,67.7,55.6,69.6,55.1z"
				/>
			<g>
				<g>
					<path class="st1" d="M60.1,18.1L14.6,63.3c-4.2,4.2-4.2,10.9,0,15.1c4.2,4.2,11,4.2,15.2,0l45.5-45.2c4.2-4.2,4.2-10.9,0-15.1
						C71.1,14,64.3,13.9,60.1,18.1z"/>
				</g>
				<g>
					<path class="st1" d="M64.5,57.9L19,103.1c-4.2,4.2-4.2,10.9,0,15.1c4.2,4.2,11,4.2,15.2,0l45.5-45.2c4.2-4.2,4.2-10.9,0-15.1
						C75.5,53.8,68.7,53.8,64.5,57.9z"/>
				</g>
			</g>
		</g>
		<g>
			<path class="st2" d="M109.4,101.7c4.7,2.6,11.5,4.5,19.1,4.5c16.4,0,25.6-7.9,25.6-20c0-10.2-6.1-16.1-17.9-20.4
				c-9.2-3.5-13.4-6.1-13.4-11.7c0-5.1,4.1-9.3,11.7-9.3c6.6,0,11.5,2.4,14.1,4.1l2.9-8.8c-3.6-2.3-9.5-4-16.7-4
				c-14.9,0-23.7,8.5-23.7,19.5c0,8.2,5.6,14.8,18.2,19.3c9.4,3.4,13.1,6.5,13.1,12.4c0,5.8-4.4,10.2-13.6,10.2
				c-6.4,0-12.8-2.5-16.5-4.8L109.4,101.7L109.4,101.7z"/>
			<path class="st2" d="M179,105V37.2h-11.7V105H179L179,105z M173.2,9.5c-4.4,0-7.4,3.3-7.4,7.4s2.8,7.2,7.1,7.2
				c4.7,0,7.5-3.2,7.5-7.2C180.5,12.7,177.5,9.5,173.2,9.5L173.2,9.5z"/>
			<path class="st2" d="M199.5,24.8v12.8h-10.7v8.7h10.7v37.3c0,9,1.4,15,4.6,18.2c2.9,2.7,7.4,4.4,13.2,4.4c4.9,0,8.7-0.7,11.1-1.4
				l-0.6-8.1c-1.9,0.6-3.9,0.9-7.3,0.9c-7,0-9.4-4.9-9.4-13.6V46.2h18v-8.7h-18V21.1L199.5,24.8L199.5,24.8z"/>
			<path class="st2" d="M293.7,72.5c0.3-1.4,0.4-3.2,0.4-5.6c0-12.2-5.6-31.1-28.4-31.1c-20.4,0-32.4,15.6-32.4,35.6
				c0,21.6,12.4,34.8,34,34.8c11.1,0,18.8-2.1,23-3.9l-2.2-8.5c-4.4,2.1-10,3.7-19.1,3.7c-12.9,0-23.7-7.3-24-25H293.7L293.7,72.5z
				 M245.2,63.8c1-8.3,6.5-19.4,19.5-19.4c14.3,0,17.8,11.9,17.7,19.4H245.2L245.2,63.8z"/>
			<path class="st2" d="M305.8,133.1h11.7V96.5h0.3c4.3,6.2,12.6,9.7,22,9.7C356.6,106.2,371,95,371,70c0-21-11.6-33.9-29-33.9
				c-11.7,0-20.2,4.2-25.3,12h-0.3l-0.7-10.8h-10.5c0.3,6.5,0.6,13.6,0.6,22.3V133.1L305.8,133.1z M317.5,66c0-1.6,0.4-3.4,0.9-4.9
				c2.4-10.2,10.8-16.2,19.7-16.2c13.7,0,21.3,12,21.3,25.8c0,16-8,26.9-21.7,26.9c-9.3,0-17.1-6.1-19.5-14.8
				c-0.4-1.6-0.6-3.3-0.6-5.2L317.5,66L317.5,66z"/>
			<path class="st2" d="M440,72.5c0.3-1.4,0.4-3.2,0.4-5.6c0-12.2-5.6-31.1-28.4-31.1c-20.4,0-32.4,15.6-32.4,35.6
				c0,21.6,12.4,34.8,34,34.8c11.1,0,18.8-2.1,23-3.9l-2.2-8.5c-4.4,2.1-10,3.7-19.1,3.7c-12.9,0-23.7-7.3-24-25H440L440,72.5z
				 M391.5,63.8c1-8.3,6.5-19.4,19.5-19.4c14.3,0,17.8,11.9,17.7,19.4H391.5L391.5,63.8z"/>
			<path class="st2" d="M449.2,105h11.7V63.5c0-2.1,0.3-4.3,0.9-5.9c2.3-7,8.9-12.8,17.2-12.8c12.1,0,16.3,9.3,16.3,20.4V105H507
				V63.9c0-23-14-27.8-23.8-27.8c-11.7,0-19.8,5.4-23.2,11.2h-0.3l-0.7-10.1h-10.4c0.4,5.6,0.6,11.2,0.6,18.3L449.2,105L449.2,105z"
				/>
		</g>
	</g>
</g>
</svg>
