<?xml version="1.0" encoding="utf-8"?>
<!-- Generator: Adobe Illustrator 21.1.0, SVG Export Plug-In . SVG Version: 6.00 Build 0)  -->
<svg version="1.1" id="Layer_1" xmlns="http://www.w3.org/2000/svg" xmlns:xlink="http://www.w3.org/1999/xlink" x="0px" y="0px"
	 viewBox="0 0 720 216" style="enable-background:new 0 0 720 216;" xml:space="preserve">
<style type="text/css">
	.st0{fill:#003B71;}
	.st1{fill:#B3B2B1;}
</style>
<g>
	<polygon class="st0" points="192.2,99.4 162.8,60.8 150.1,60.8 150.1,123.5 163.7,123.5 163.7,83.7 194,123.5 205.8,123.5 
		205.8,60.8 192.2,60.8 	"/>
	<path class="st0" d="M240.1,60.4l-26.9,63.1h14.1l5.7-14.1h26.5l5.7,14.1h14.4l-26.9-63.1H240.1z M237.9,97.3l8.3-20.3l8.3,20.3
		H237.9z"/>
	<path class="st0" d="M330,90.7c4.5-2.5,8.2-6.4,8.2-13.5V77c0-9.9-7.9-16.2-20.7-16.2h-29.1v62.7h29.8c14.2,0,23.5-5.7,23.5-17.2
		v-0.2C341.7,97.7,337.3,93.5,330,90.7z M301.9,72.9h13.6c5.8,0,9,2.3,9,6.4v0.2c0,4.7-3.9,6.6-9.9,6.6h-12.7V72.9z M328,104.6
		c0,4.7-3.7,6.8-9.8,6.8h-16.4V97.6h15.9c7.1,0,10.2,2.6,10.2,6.8V104.6z"/>
	<path class="st0" d="M405,81.7v-0.2c0-12.9-8.9-20.7-23.6-20.7h-28.7v62.7h13.8v-20.1h10.8l13.4,20.1h16.1l-15.3-22.4
		C399.5,98.2,405,91.8,405,81.7z M391,82.4c0,5.3-3.9,8.9-10.6,8.9h-14v-18h13.7c6.7,0,10.8,3,10.8,9V82.4z"/>
	<rect x="418.1" y="60.8" class="st0" width="13.8" height="62.7"/>
	<path class="st0" d="M472,60.8h-24.5v62.7H472c19.7,0,33.3-13.7,33.3-31.3V92C505.3,74.3,491.7,60.8,472,60.8z M490.9,92.3
		c0,11.1-7.6,18.7-18.9,18.7h-10.7V73.3H472c11.3,0,18.9,7.8,18.9,18.9V92.3z"/>
	<path class="st0" d="M546.4,99.3h13.9v9c-3.5,2.5-8,3.8-13,3.8c-11.1,0-19-8.4-19-19.9V92c0-10.7,8-19.5,18-19.5
		c7.3,0,11.6,2.3,16.4,6.4l8.7-10.5c-6.5-5.6-13.3-8.6-24.6-8.6c-19,0-32.9,14.6-32.9,32.4v0.2c0,18.5,13.4,32.2,33,32.2
		c11.5,0,20.3-4.5,26.8-9.9V87.4h-27.2V99.3z"/>
	<polygon class="st0" points="598.4,98.1 627.9,98.1 627.9,85.8 598.4,85.8 598.4,73.1 631.9,73.1 631.9,60.8 584.7,60.8 
		584.7,123.5 632.4,123.5 632.4,111.2 598.4,111.2 	"/>
	<path class="st0" d="M669.1,60.8h-24.5v62.7h24.5c19.7,0,33.3-13.7,33.3-31.3V92C702.4,74.3,688.8,60.8,669.1,60.8z M688,92.3
		c0,11.1-7.6,18.7-18.9,18.7h-10.7V73.3h10.7c11.3,0,18.9,7.8,18.9,18.9V92.3z"/>
</g>
<path class="st1" d="M33.4,31.8c-0.3,0-0.8,0-1.1,0c-6.6,0-11.5,3.6-11.5,12.1c0,8.6,0,87.3,0,95.9c0,8.6,5.1,13.2,11.8,13.2
	c0.2,0,0.6,0,0.8,0c4.3,0,5.5-1.5,5.5-5.5c0-8.7,0-102.5,0-111C38.9,32.4,36.9,31.8,33.4,31.8z"/>
<g>
	<path class="st1" d="M304.7,158.3c-6.7-1.4-8.3-3.1-8.3-6c0-2.8,2.5-5,6.5-5c3.2,0,6,1,8.9,3.3l2-2.7c-3.1-2.5-6.3-3.8-10.8-3.8
		c-5.8,0-10.1,3.5-10.1,8.4c0,5.1,3.2,7.4,10.3,8.9c6.4,1.4,8,3,8,5.9c0,3.1-2.7,5.3-6.8,5.3c-4.3,0-7.3-1.4-10.5-4.3l-2.1,2.5
		c3.7,3.3,7.7,4.9,12.5,4.9c6.1,0,10.5-3.4,10.5-8.7C314.7,162.3,311.6,159.8,304.7,158.3z"/>
	<path class="st1" d="M356.3,144.1c-9.3,0-15.7,7.4-15.7,15.9c0,8.5,6.3,15.8,15.6,15.8c9.3,0,15.7-7.4,15.7-15.9
		C371.9,151.4,365.6,144.1,356.3,144.1z M356.3,172.6c-7,0-12.1-5.7-12.1-12.7c0-7,5-12.6,12-12.6c7,0,12.1,5.7,12.1,12.7
		C368.3,167,363.3,172.6,356.3,172.6z"/>
	<polygon class="st1" points="398.3,175.3 401.7,175.3 401.7,161.9 418.3,161.9 418.3,158.8 401.7,158.8 401.7,147.8 420.3,147.8 
		420.3,144.6 398.3,144.6 	"/>
	<polygon class="st1" points="446.1,147.8 456.4,147.8 456.4,175.3 459.9,175.3 459.9,147.8 470.2,147.8 470.2,144.6 446.1,144.6 	
		"/>
	<polygon class="st1" points="526.7,170.2 518.3,144.5 515.4,144.5 507,170.2 498.2,144.6 494.5,144.6 505.4,175.5 508.3,175.5 
		516.8,150.6 525.2,175.5 528.1,175.5 539.1,144.6 535.4,144.6 	"/>
	<path class="st1" d="M574.7,144.4l-14,30.9h3.6l3.6-8.1h16.7l3.6,8.1h3.7l-14-30.9H574.7z M569.2,164.1l7-15.6l7,15.6H569.2z"/>
	<path class="st1" d="M642.4,153.8c0-5.5-4.3-9.2-11.1-9.2h-13.2v30.7h3.5v-11.9h8.8l8.9,11.9h4.3l-9.4-12.5
		C638.9,161.9,642.4,158.9,642.4,153.8z M621.6,160.3v-12.4h9.5c5,0,7.8,2.3,7.8,6.1c0,4-3.3,6.4-7.9,6.4H621.6z"/>
	<polygon class="st1" points="673.4,172.2 673.4,161.4 690.2,161.4 690.2,158.3 673.4,158.3 673.4,147.8 692.1,147.8 692.1,144.6 
		670,144.6 670,175.3 692.4,175.3 692.4,172.2 	"/>
</g>
<g>
	<path class="st0" d="M125.3,31.7c-6.6,0-73.5,0-74.2,0c-4,0-5.2,0.9-5.2,4.8c0,8.5,0,102.4,0,111c0,4.3,1.4,5.6,5.3,5.6
		c0.7,0,3.8,0,5.3,0h17.7c24.8,0,44.4,0,51.1,0c9,0,13.5-4.5,13.5-13.2c0-8.7,0-87.5,0-95.9C138.9,35.4,134.3,31.7,125.3,31.7z
		 M118.1,112.6c0,1.5-0.3,2.8-0.9,4.1c-0.6,1.3-1.3,2.5-2.3,3.4c-0.9,1-2.1,1.7-3.4,2.3c-1.3,0.6-2.7,0.8-4.2,0.8H75.2
		c-1.4,0-2.8-0.3-4.1-0.8c-1.3-0.5-2.5-1.3-3.4-2.3c-1-1-1.7-2.1-2.3-3.4c-0.6-1.3-0.8-2.7-0.8-4.1V61.1c0-1.1,0.6-1.7,1.7-1.7h12.6
		c1.2,0,1.7,0.6,1.7,1.7v45c0,0.5,0.2,0.9,0.5,1.2c0.3,0.3,0.7,0.5,1.2,0.5h18.1c0.5,0,0.9-0.1,1.2-0.5c0.3-0.3,0.5-0.7,0.5-1.2v-45
		c0-0.5,0.2-0.9,0.5-1.2c0.3-0.3,0.7-0.5,1.2-0.5h12.7c0.5,0,0.9,0.2,1.2,0.5c0.3,0.3,0.5,0.8,0.5,1.2V112.6z"/>
</g>
</svg>
