<?xml version="1.0" encoding="UTF-8" standalone="no"?>
<!-- Created with Inkscape (http://www.inkscape.org/) -->

<svg
   xmlns:dc="http://purl.org/dc/elements/1.1/"
   xmlns:cc="http://creativecommons.org/ns#"
   xmlns:rdf="http://www.w3.org/1999/02/22-rdf-syntax-ns#"
   xmlns:svg="http://www.w3.org/2000/svg"
   xmlns="http://www.w3.org/2000/svg"
   xmlns:sodipodi="http://sodipodi.sourceforge.net/DTD/sodipodi-0.dtd"
   xmlns:inkscape="http://www.inkscape.org/namespaces/inkscape"
   version="1.1"
   id="svg815"
   xml:space="preserve"
   width="87.807327"
   height="124"
   viewBox="0 0 87.807327 124"
   sodipodi:docname="Zillow Logo.svg"
   inkscape:version="0.92.2 (5c3e80d, 2017-08-06)"><metadata
     id="metadata821"><rdf:RDF><cc:Work
         rdf:about=""><dc:format>image/svg+xml</dc:format><dc:type
           rdf:resource="http://purl.org/dc/dcmitype/StillImage" /><dc:title></dc:title></cc:Work></rdf:RDF></metadata><defs
     id="defs819"><clipPath
       clipPathUnits="userSpaceOnUse"
       id="clipPath833"><path
         d="M 0,3171.942 H 2307.204 V 0 H 0 Z"
         id="path831"
         inkscape:connector-curvature="0" /></clipPath><clipPath
       clipPathUnits="userSpaceOnUse"
       id="clipPath857"><path
         d="M 0,3171.942 H 2307.204 V 0 H 0 Z"
         id="path855"
         inkscape:connector-curvature="0" /></clipPath></defs><sodipodi:namedview
     pagecolor="#ffffff"
     bordercolor="#666666"
     borderopacity="1"
     objecttolerance="10"
     gridtolerance="10"
     guidetolerance="10"
     inkscape:pageopacity="0"
     inkscape:pageshadow="2"
     inkscape:window-width="640"
     inkscape:window-height="480"
     id="namedview817"
     showgrid="false"
     inkscape:zoom="4.6279364"
     inkscape:cx="29.308893"
     inkscape:cy="52.18439"
     inkscape:current-layer="g823"
     fit-margin-top="0"
     fit-margin-left="0"
     fit-margin-right="0"
     fit-margin-bottom="0" /><g
     id="g823"
     inkscape:groupmode="layer"
     inkscape:label="ForScreen_RGB_ZillowLogo_Blue-Square-Vertical"
     transform="matrix(1.3333333,0,0,-1.3333333,-46.725999,124.00067)"><path
       d="M 35.055979,27.432239 H 100.62427 V 93.000502 H 35.055979 Z"
       style="fill:#0074e4;fill-opacity:1;fill-rule:nonzero;stroke:none;stroke-width:0.02931958"
       id="path825"
       inkscape:connector-curvature="0" /><g
       id="g827"
       transform="matrix(0.02931958,0,0,0.02931958,34.01701,4.8534021e-4)"><g
         id="g829"
         clip-path="url(#clipPath833)"><g
           id="g835"
           transform="translate(1267.8776,2691.1311)"><path
             d="m 0,0 c -85.651,-39.807 -332.319,-230.342 -465.157,-330.305 161.687,53.894 550.138,139.993 749.171,144.69 C 221.844,-141.784 47.187,-23.034 0,0"
             style="fill:#ffffff;fill-opacity:1;fill-rule:evenodd;stroke:none"
             id="path837"
             inkscape:connector-curvature="0" /></g><g
           id="g839"
           transform="translate(492.3188,1461.15)"><path
             d="m 0,0 c 54.79,24.152 574.289,197.02 1051.969,225.646 10.288,40.253 62.618,175.328 72.234,212.003 C 628.632,402.315 225.645,254.271 63.734,179.353 Z"
             style="fill:#ffffff;fill-opacity:1;fill-rule:evenodd;stroke:none"
             id="path841"
             inkscape:connector-curvature="0" /></g><g
           id="g843"
           transform="translate(1589.0142,2479.5745)"><path
             d="m 0,0 c 0,0 -482.152,-484.39 -557.74,-553.94 146.703,53.001 447.042,116.066 637.802,127.472 22.14,67.536 45.621,116.512 45.621,116.512 l 255.164,25.495 c 0,0 -193.89,156.766 -380.847,284.461"
             style="fill:#ffffff;fill-opacity:1;fill-rule:evenodd;stroke:none"
             id="path845"
             inkscape:connector-curvature="0" /></g><g
           id="g847"
           transform="translate(575.0628,1692.6104)"><path
             d="M 0,0 C 151.846,156.319 698.181,660.611 698.181,660.611 413.945,594.193 117.183,504.069 11.181,455.763 l -159.45,-163.922 c 133.286,28.4 176.223,33.991 273.727,48.304 z"
             style="fill:#ffffff;fill-opacity:1;fill-rule:evenodd;stroke:none"
             id="path849"
             inkscape:connector-curvature="0" /></g></g></g><g
       id="g851"
       transform="matrix(0.02931958,0,0,0.02931958,34.01701,4.8534021e-4)"><g
         id="g853"
         clip-path="url(#clipPath857)"><g
           id="g859"
           transform="translate(1567.3555,61.0775)"><path
             d="m 0,0 c 38.977,43.042 56.674,94.695 56.674,170.454 0,71.445 -15.919,119.627 -52.236,160.956 -38.939,44.789 -89.386,66.304 -154.025,66.304 -122.135,0 -203.569,-92.116 -203.569,-230.729 0,-138.583 80.541,-228.062 203.569,-228.062 C -79.661,-61.077 -34.501,-37.889 0,0 m -96.455,289.255 c 15.934,-19.811 23.88,-58.538 23.88,-117.965 0,-104.172 -22.139,-148.937 -73.472,-148.937 -22.994,0 -49.56,12.079 -60.176,36.176 -9.723,22.393 -15.053,60.283 -15.053,111.058 0,43.92 4.474,74.903 12.411,98.142 9.723,27.525 32.711,44.756 61.094,44.756 21.241,0 39.803,-8.61 51.316,-23.23 M 574.371,-51.621 703.576,389.098 H 581.446 L 546.949,231.563 C 534.541,175.616 524.816,106.754 522.141,87.798 c 0,0 -13.233,74.036 -33.61,155.803 L 452.236,389.098 H 340.695 L 298.22,241.042 C 276.979,166.15 265.429,87.798 265.429,87.798 c 0,0 -14.119,86.105 -25.595,136.89 L 203.686,389.15 H 82.624 l 126.17,-440.771 h 110.669 l 22.984,90.369 c 10.615,41.286 30.138,117.056 38.959,154.978 7.081,31.809 7.941,37.837 10.628,56.772 2.674,-17.21 3.577,-23.219 7.112,-43.878 5.255,-29.279 15.913,-71.474 25.638,-106.784 l 40.722,-151.457 z m -1138.517,0.279 -0.861,610.033 121.319,26.677 0.817,-636.71 z m -235.677,0 -0.86,610.033 121.269,26.677 0.86,-636.71 z m -235.259,-1.188 h 118.627 l -0.248,413.364 -118.176,-25.759 z m 59.317,438.836 c 40.722,0 73.43,31.861 73.43,71.454 0,39.604 -31.847,71.465 -71.722,71.465 -40.678,0 -74.288,-31.861 -74.288,-71.465 0,-39.593 32.718,-71.454 72.58,-71.454 m -172.38,-437.927 31.869,98.122 h -207.147 c -24.777,0 -52.157,-0.206 -52.157,-0.206 0,0 9.661,17.406 22.969,38.922 l 234.01,398.225 v 86.946 h -368.227 l -27.458,-99.857 h 189.43 c 37.181,0 50.658,-1.063 50.658,-1.063 0,0 -9.044,-21.319 -25.881,-48.854 L -1532.311,32.718 v -84.339 z"
             style="fill:#0074e4;fill-opacity:1;fill-rule:evenodd;stroke:none"
             id="path861"
             inkscape:connector-curvature="0" /></g><g
           id="g863"
           transform="translate(2231.5984,547.2338)"><path
             d="M 0,0 C -27.161,0 -49.475,21.92 -49.475,49.995 -49.475,78.08 -27.161,100 0,100 27.007,100 49.573,78.08 49.573,49.995 49.573,21.92 27.007,0 0,0 m 0,91.786 c -22.217,0 -39.775,-18.268 -39.775,-41.791 0,-23.383 17.558,-41.911 39.775,-41.911 22.027,0 39.867,18.528 39.867,41.911 0,23.523 -17.84,41.791 -39.867,41.791 M 11.136,22.189 6.295,30.914 c -3.884,6.849 -6.449,10.621 -9.515,13.706 -1.101,1.078 -1.914,1.626 -3.661,1.746 V 22.189 h -9.115 V 78.08 H 1.055 c 12.492,0 18.128,-7.266 18.128,-15.996 0,-8.586 -5.478,-15.313 -13.864,-15.313 2.035,-1.073 5.664,-6.435 8.637,-11.146 l 8.2,-13.436 z M -6.881,70.572 V 52.829 h 4.85 c 4.846,0 7.35,0.669 9.009,2.412 1.594,1.458 2.56,3.907 2.56,6.727 0,5.64 -3.094,8.604 -11.327,8.604 z"
             style="fill:#0083ca;fill-opacity:1;fill-rule:nonzero;stroke:none"
             id="path865"
             inkscape:connector-curvature="0" /></g></g></g></g></svg>