<?xml version="1.0" encoding="utf-8"?>
<!-- Generator: Adobe Illustrator 21.1.0, SVG Export Plug-In . SVG Version: 6.00 Build 0)  -->
<svg version="1.1" id="Layer_1" xmlns="http://www.w3.org/2000/svg" xmlns:xlink="http://www.w3.org/1999/xlink" x="0px" y="0px"
	 viewBox="0 0 100 100" style="enable-background:new 0 0 100 100;" xml:space="preserve">
<style type="text/css">
	.st0{fill:none;stroke:#000000;stroke-miterlimit:10;}
	.st1{fill:none;stroke:#000000;stroke-width:1.5;stroke-miterlimit:10;}
	.st2{fill:none;stroke:#000000;stroke-width:0.5;stroke-miterlimit:10;}
</style>
<g>
	<path class="st0" d="M15,80.1c-0.8-1-1.6-2-2.3-3.1c-2.6-3.8-4.5-7.8-5.8-12c-1.9-6-2.5-12.3-1.8-18.4c0.6-6.2,2.5-12.2,5.6-17.8"
		/>
	<path class="st0" d="M73.3,91.2c-2.6,1.5-5.2,2.6-7.9,3.6c-6.4,2.2-13,2.9-19.6,2.2c-6.6-0.7-13-2.8-18.8-6.3"/>
	<path class="st0" d="M94.1,36.5c2.3,6.8,3,14.1,2,21.1c-0.9,6.2-3,12.2-6.3,17.6"/>
	<path class="st0" d="M21.9,15.6c1.1-0.8,2.1-1.6,3.2-2.4c3.7-2.5,7.6-4.3,11.7-5.6c12.6-4,26.5-2.4,37.8,4.5
		c0.3,0.2,0.6,0.4,0.9,0.6"/>
	<path class="st1" d="M66.7,88.7c-4.3,1.9-9,3.1-13.9,3.4c-5.3,0.4-10.5-0.3-15.3-1.9c-5.4-1.7-10.3-4.5-14.5-8.2
		c-4.2-3.7-7.7-8.2-10.1-13.3c-2.2-4.6-3.6-9.7-3.9-15c-0.3-5.3,0.3-10.3,1.8-15.1c0.8-2.7,2-5.2,3.3-7.7"/>
	<path class="st1" d="M33.7,13.2c4.2-1.8,8.8-3,13.7-3.3c5-0.3,9.8,0.2,14.3,1.6c6.2,1.8,11.8,5.1,16.5,9.4
		c4.1,3.8,7.4,8.4,9.7,13.7c1.8,4.2,3,8.8,3.3,13.7c0.3,5-0.2,9.8-1.6,14.3c-0.5,1.6-1.1,3.2-1.7,4.8"/>
	<path class="st2" d="M9.9,35.3c4.5-11.6,13.9-20.8,25.7-25"/>
	<path class="st2" d="M34.3,91.2c-5.5-2.2-10.5-5.4-14.6-9.5c-4.2-4.1-7.5-9.1-9.7-14.6"/>
	<path class="st2" d="M90.7,65.9c-2.2,5.9-5.6,11.3-10,15.6c-4.4,4.4-9.8,7.9-15.7,10"/>
	<path class="st2" d="M65,10.4c6.4,2.3,12.1,6.1,16.6,11c4,4.3,7.2,9.4,9.2,15"/>
</g>
</svg>
