<?xml version="1.0" encoding="utf-8"?>
<!-- Generator: Adobe Illustrator 21.1.0, SVG Export Plug-In . SVG Version: 6.00 Build 0)  -->
<svg version="1.1" id="Layer_1" xmlns="http://www.w3.org/2000/svg" xmlns:xlink="http://www.w3.org/1999/xlink" x="0px" y="0px"
	 viewBox="0 0 100 100" style="enable-background:new 0 0 100 100;" xml:space="preserve">
<style type="text/css">
	.st0{fill:none;stroke:#000000;stroke-width:4;stroke-miterlimit:10;}
	.st1{fill:none;stroke:#000000;stroke-width:5;stroke-miterlimit:10;}
	.st2{fill:none;stroke:#000000;stroke-width:2;stroke-miterlimit:10;}
</style>
<path class="st0" d="M17.2,75.4c-0.8-0.9-1.5-1.9-2.1-2.9c-2.4-3.6-4.2-7.4-5.5-11.3c-1.8-5.6-2.3-11.5-1.7-17.3
	c0.6-5.8,2.4-11.5,5.3-16.7"/>
<path class="st0" d="M72,85.8c-2.4,1.4-4.9,2.5-7.4,3.3c-6,2-12.3,2.7-18.4,2c-6.2-0.7-12.2-2.6-17.7-5.9"/>
<path class="st0" d="M91.5,34.4c2.2,6.4,2.8,13.2,1.9,19.8c-0.8,5.8-2.8,11.4-5.9,16.5"/>
<path class="st0" d="M23.6,14.8c1-0.8,2-1.5,3-2.2c3.5-2.3,7.1-4.1,11-5.3C49.5,3.4,62.5,5,73.1,11.5c0.3,0.2,0.6,0.4,0.9,0.5"/>
<path class="st1" d="M63.4,78.1c-3.4,1.5-7.2,2.5-11.1,2.7c-4.3,0.3-8.4-0.3-12.2-1.5c-4.3-1.4-8.2-3.6-11.6-6.5
	c-3.4-2.9-6.1-6.5-8.1-10.6c-1.8-3.7-2.9-7.7-3.1-12c-0.3-4.2,0.2-8.3,1.4-12.1c0.7-2.1,1.6-4.2,2.6-6.1"/>
<path class="st1" d="M37,17.8c3.4-1.5,7.1-2.4,11-2.6c4-0.3,7.8,0.2,11.5,1.3c5,1.5,9.5,4.1,13.2,7.5c3.3,3,5.9,6.8,7.7,10.9
	c1.5,3.4,2.4,7.1,2.6,11c0.3,4-0.2,7.9-1.3,11.5c-0.4,1.3-0.9,2.6-1.4,3.8"/>
<path class="st2" d="M14.3,34c4-10.3,12.4-18.5,22.9-22.3"/>
<path class="st2" d="M36.1,83.8c-4.9-1.9-9.3-4.8-13-8.5c-3.7-3.7-6.7-8.1-8.6-13"/>
<path class="st2" d="M86.3,61.2c-1.9,5.3-5,10-8.9,13.9c-3.9,3.9-8.7,7-14,8.9"/>
<path class="st2" d="M63.4,11.9c5.7,2.1,10.7,5.5,14.8,9.8c3.6,3.8,6.4,8.3,8.2,13.3"/>
</svg>
