<?xml version="1.0" encoding="utf-8"?>
<!-- Generator: Adobe Illustrator 21.1.0, SVG Export Plug-In . SVG Version: 6.00 Build 0)  -->
<svg version="1.1" id="Layer_1" xmlns="http://www.w3.org/2000/svg" xmlns:xlink="http://www.w3.org/1999/xlink" x="0px" y="0px"
	 viewBox="0 0 200 201" style="enable-background:new 0 0 200 201;" xml:space="preserve">
<style type="text/css">
	.st0{fill:#643056;}
	.st1{fill:none;stroke:#6D6E71;stroke-miterlimit:10;}
	.st2{fill:none;stroke:#000000;stroke-width:2;stroke-miterlimit:10;}
	.st3{fill:none;stroke:#000000;stroke-width:3;stroke-miterlimit:10;}
	.st4{fill:none;stroke:#000000;stroke-miterlimit:10;}
	.st5{fill:#FFFFFF;}
	.st6{fill:none;stroke:#FFFFFF;stroke-miterlimit:10;}
	.st7{fill:#0C3A5C;}
	.st8{fill:#00999E;}
	.st9{fill:#A1C350;}
	.st10{fill:#FFFFFF;stroke:#000000;stroke-width:2;stroke-miterlimit:10;}
	.st11{fill:none;stroke:#FFFFFF;stroke-width:2;stroke-miterlimit:10;}
	.st12{fill:none;stroke:#FFFFFF;stroke-width:3;stroke-miterlimit:10;}
	.st13{fill:none;stroke:#000000;stroke-width:10.3934;stroke-miterlimit:10;}
	.st14{fill:none;stroke:#000000;stroke-width:15.5901;stroke-miterlimit:10;}
	.st15{fill:none;stroke:#000000;stroke-width:5.1967;stroke-miterlimit:10;}
	.st16{fill:#FFFFFF;stroke:#000000;stroke-width:10.3934;stroke-miterlimit:10;}
	.st17{fill:none;stroke:#FFFFFF;stroke-width:10.3934;stroke-miterlimit:10;}
	.st18{fill:none;stroke:#FFFFFF;stroke-width:15.5901;stroke-miterlimit:10;}
	.st19{fill:none;stroke:#FFFFFF;stroke-width:5.1967;stroke-miterlimit:10;}
</style>
<rect y="0.5" width="200" height="200"/>
<g>
	<path class="st5" d="M73.4,101.5c-4.5,2.6-9.4,3.9-14.2,3.9c-12.4,0-20.5-7.7-20.5-19.7v-5.6c0-5.4,2.3-11,6.1-14.6
		c3.4-3.2,7.8-4.9,12.8-4.9c5,0,9.2,1.4,12.6,4.1v-1.1c0-1.4,0.5-2,1.6-2c1.1,0,1.5,0.6,1.5,2v6.9c0,1.4-0.5,2-1.5,2
		s-1.4-0.5-1.5-1.9c-0.3-3.9-5.8-7-12.5-7c-4.2,0-7.7,1.3-10.5,4.1c-3.3,3.1-5.5,8-5.5,12.4v5.5c0,10.3,6.7,16.6,17.6,16.6
		c3.9,0,6.5-0.6,10.8-2.6V88.4H59.8c-1.4,0-2-0.5-2-1.6c0-1.1,0.7-1.5,2-1.5h14.7c1.4,0,2.1,0.5,2.1,1.5c0,1.1-0.7,1.6-2.1,1.6h-1.1
		V101.5z"/>
	<path class="st5" d="M90.3,101.2h23.8v-9c0-1.4,0.5-2,1.6-2c1,0,1.5,0.7,1.5,2v12.1H83.1c-1.4,0-2-0.5-2-1.6c0-1,0.7-1.5,2-1.5h4.1
		V64.7h-4.1c-1.4,0-2-0.5-2-1.6c0-1.1,0.7-1.5,2-1.5h32.5v10.5c0,1.4-0.5,2-1.6,2c-1,0-1.5-0.7-1.5-2v-7.4H90.3v15.8h11v-3.4
		c0-1.4,0.5-2,1.6-2c1.1,0,1.5,0.6,1.5,2v9.9c0,1.4-0.5,2-1.5,2c-1.1,0-1.6-0.7-1.6-2v-3.4h-11V101.2z"/>
	<path class="st5" d="M150,101.2c1.4,0,2,0.5,2,1.5c0,1.1-0.7,1.6-2,1.6h-19c-1.4,0-2-0.5-2-1.6c0-1,0.7-1.5,2-1.5h8V64.7h-12.7v5.5
		c0,1.4-0.5,2-1.6,2c-1,0-1.5-0.7-1.5-2v-8.6h34.5v8.6c0,1.5-0.5,2-1.5,2c-0.9,0-1.6-0.8-1.6-2v-5.5h-12.6v36.4H150z"/>
</g>
<path class="st5" d="M63.3,134.6H45.6c-0.5,0-0.9-0.1-1.5-0.2c-0.5-0.1-1-0.3-1.5-0.5c-0.5-0.2-1-0.5-1.5-0.9
	c-0.5-0.4-0.9-0.8-1.2-1.3c-0.4-0.5-0.6-1.1-0.9-1.8c-0.2-0.7-0.3-1.4-0.3-2.3v-13.2c0-0.5,0.1-0.9,0.2-1.5c0.1-0.5,0.3-1,0.5-1.5
	c0.2-0.5,0.5-1,0.9-1.5c0.4-0.5,0.8-0.9,1.3-1.2c0.5-0.4,1.1-0.6,1.8-0.9c0.7-0.2,1.4-0.3,2.3-0.3h17.6v4.9H45.6
	c-0.6,0-1.1,0.2-1.5,0.5c-0.3,0.3-0.5,0.8-0.5,1.5v13.2c0,0.6,0.2,1.1,0.5,1.5c0.3,0.3,0.8,0.5,1.5,0.5h17.6V134.6z"/>
<path class="st5" d="M95.8,123.6c0,1.6-0.3,3.2-0.8,4.5c-0.6,1.4-1.3,2.6-2.4,3.6c-1,1-2.2,1.8-3.6,2.3c-1.4,0.6-2.9,0.8-4.5,0.8H78
	c-1.6,0-3.1-0.3-4.5-0.8c-1.4-0.6-2.6-1.3-3.6-2.3c-1-1-1.8-2.2-2.4-3.6c-0.6-1.4-0.9-2.9-0.9-4.5v-5.2c0-1.6,0.3-3.1,0.9-4.5
	c0.6-1.4,1.4-2.6,2.4-3.6c1-1,2.2-1.8,3.6-2.3c1.4-0.6,2.9-0.8,4.5-0.8h6.6c1.6,0,3.1,0.3,4.5,0.8c1.4,0.6,2.6,1.3,3.6,2.3
	c1,1,1.8,2.2,2.4,3.6c0.6,1.4,0.8,2.9,0.8,4.5V123.6z M90.9,118.5c0-1-0.2-1.8-0.5-2.6s-0.7-1.5-1.3-2c-0.6-0.6-1.2-1-2-1.3
	s-1.6-0.5-2.6-0.5H78c-1,0-1.8,0.2-2.6,0.5s-1.5,0.7-2,1.3c-0.6,0.6-1,1.2-1.3,2c-0.3,0.8-0.5,1.7-0.5,2.6v5.2c0,1,0.2,1.8,0.5,2.6
	c0.3,0.8,0.7,1.5,1.3,2c0.6,0.6,1.2,1,2,1.3c0.8,0.3,1.7,0.5,2.6,0.5h6.6c1,0,1.8-0.2,2.6-0.5c0.8-0.3,1.5-0.7,2-1.3
	c0.6-0.6,1-1.2,1.3-2c0.3-0.8,0.5-1.7,0.5-2.6V118.5z"/>
<path class="st5" d="M127.6,132.5c0,0.4-0.1,0.7-0.2,1c-0.1,0.3-0.3,0.6-0.5,0.8s-0.5,0.4-0.8,0.5c-0.3,0.1-0.6,0.2-1,0.2
	c-0.3,0-0.6-0.1-0.9-0.2c-0.3-0.1-0.6-0.3-0.8-0.5l-17.9-18.7v19h-4.9v-24.9c0-0.5,0.1-1,0.4-1.4c0.3-0.4,0.6-0.7,1.1-0.9
	c0.5-0.2,0.9-0.2,1.4-0.1c0.5,0.1,0.9,0.3,1.3,0.7l17.9,18.6v-19h4.9V132.5z"/>
<path class="st5" d="M157.8,112.5h-19.6v22.1h-4.9v-24.5c0-0.3,0.1-0.7,0.2-1s0.3-0.6,0.5-0.8c0.2-0.2,0.5-0.4,0.8-0.5
	c0.3-0.1,0.6-0.2,1-0.2h22V112.5z M155.6,123.5h-15.5v-4.9h15.5V123.5z"/>
<g>
	<path class="st6" d="M28.1,160.5c-1.6-2-3.1-4.1-4.6-6.2c-5.2-7.6-9.1-15.8-11.7-24.2C8,118,6.8,105.3,8.1,93
		c1.3-12.5,5.1-24.7,11.3-35.8"/>
	<path class="st6" d="M145.6,182.8c-5.1,2.9-10.5,5.3-15.9,7.2c-12.8,4.3-26.3,5.8-39.5,4.4c-13.3-1.4-26.2-5.7-37.9-12.7"/>
	<path class="st6" d="M187.5,72.7c4.7,13.8,6,28.3,4,42.4c-1.7,12.4-6,24.5-12.6,35.4"/>
	<path class="st6" d="M42,30.5c2.1-1.7,4.3-3.3,6.5-4.8c7.4-5,15.3-8.8,23.5-11.4c25.4-8.1,53.3-4.8,76.2,9.1
		c0.6,0.4,1.2,0.8,1.9,1.2"/>
	<path class="st6" d="M132.3,177.7c-8.6,3.8-18.1,6.2-28,6.9c-10.7,0.7-21.1-0.7-30.7-3.7c-10.8-3.5-20.7-9.1-29.1-16.4
		c-8.5-7.4-15.5-16.5-20.4-26.8c-4.4-9.2-7.2-19.5-7.9-30.3c-0.7-10.6,0.6-20.8,3.6-30.4c1.7-5.4,3.9-10.6,6.7-15.4"/>
	<path class="st6" d="M65.7,25.7c8.5-3.7,17.8-6,27.6-6.7c10-0.7,19.7,0.5,28.8,3.2c12.5,3.7,23.9,10.2,33.2,19
		c8.2,7.7,14.9,17,19.5,27.6c3.7,8.5,6,17.8,6.7,27.6c0.7,10-0.5,19.8-3.2,28.9c-1,3.3-2.2,6.5-3.5,9.7"/>
	<path class="st6" d="M17.7,70.2c9.1-23.4,28.1-41.9,51.8-50.4"/>
	<path class="st6" d="M66.9,182.8c-11.1-4.4-21.1-11-29.4-19.2c-8.4-8.3-15.1-18.3-19.5-29.5"/>
	<path class="st6" d="M180.6,131.8c-4.4,12-11.3,22.7-20.2,31.5c-8.9,8.9-19.7,15.9-31.7,20.3"/>
	<path class="st6" d="M128.9,20c12.9,4.7,24.3,12.4,33.5,22.2c8.1,8.6,14.4,18.9,18.5,30.2"/>
</g>
</svg>
