<svg id="Layer_1" data-name="Layer 1" xmlns="http://www.w3.org/2000/svg" viewBox="0 0 95.27 95.27"><defs><style>.cls-1,.cls-5{fill:#231f20;}.cls-2,.cls-3,.cls-4{fill:none;}.cls-2,.cls-3,.cls-4,.cls-8{stroke:#231f20;stroke-miterlimit:10;}.cls-2,.cls-8{stroke-width:1.02px;}.cls-3{stroke-width:1.53px;}.cls-4{stroke-width:0.51px;}.cls-5{font-size:7.55px;font-family:Audiowide-Regular, Audiowide;}.cls-6{letter-spacing:-0.01em;}.cls-7{letter-spacing:-0.01em;}.cls-8{fill:#fff;}</style></defs><title>GET</title><path class="cls-1" d="M37.23,49.48a14.69,14.69,0,0,1-7.22,2c-6.34,0-10.43-3.94-10.43-10V38.59a10.65,10.65,0,0,1,3.13-7.46,9.37,9.37,0,0,1,6.53-2.51,9.92,9.92,0,0,1,6.41,2.09v-.54c0-.73.23-1,.81-1s.77.31.77,1v3.52c0,.7-.27,1-.77,1s-.73-.27-.77-1c-.15-2-2.94-3.55-6.37-3.55a7.28,7.28,0,0,0-5.37,2.09,9,9,0,0,0-2.78,6.34v2.82c0,5.25,3.4,8.46,9,8.46a11.67,11.67,0,0,0,5.52-1.31V42.8H30.28q-1,0-1-.81c0-.54.35-.77,1-.77h7.49c.73,0,1.08.27,1.08.77s-.35.81-1.08.81h-.54Z" transform="translate(-3.16 -2.29)"/><path class="cls-1" d="M45.87,49.29H58v-4.6q0-1,.81-1c.5,0,.77.35.77,1v6.18H42.2q-1,0-1-.81c0-.5.35-.77,1-.77h2.09V30.7H42.2q-1,0-1-.81c0-.54.35-.77,1-.77H58.77v5.37q0,1-.81,1c-.5,0-.77-.35-.77-1V30.7H45.87v8.07h5.6V37q0-1,.81-1c.54,0,.77.31.77,1V42.1c0,.7-.27,1-.77,1s-.81-.35-.81-1V40.36h-5.6Z" transform="translate(-3.16 -2.29)"/><path class="cls-1" d="M76.32,49.29c.7,0,1,.27,1,.77s-.35.81-1,.81h-9.7q-1,0-1-.81c0-.5.35-.77,1-.77h4.06V30.7H64.23v2.82q0,1-.81,1c-.5,0-.77-.35-.77-1v-4.4H80.26v4.4c0,.77-.23,1-.77,1s-.81-.43-.81-1V30.7H72.26V49.29Z" transform="translate(-3.16 -2.29)"/><path class="cls-1" d="M32.07,66.31h-9a3.71,3.71,0,0,1-.74-.08,3.81,3.81,0,0,1-.79-.25,3.65,3.65,0,0,1-.74-.45,3,3,0,0,1-.63-.66,3.27,3.27,0,0,1-.44-.9,3.8,3.8,0,0,1-.16-1.16V56.06a3.71,3.71,0,0,1,.08-.74,3.81,3.81,0,0,1,.25-.79,3.53,3.53,0,0,1,.45-.74,3.12,3.12,0,0,1,.67-.63,3.29,3.29,0,0,1,.9-.44,3.76,3.76,0,0,1,1.15-.16h9v2.49h-9a1,1,0,0,0-.75.26,1,1,0,0,0-.26.77v6.73a.92.92,0,0,0,1,1h9Z" transform="translate(-3.16 -2.29)"/><path class="cls-1" d="M48.67,60.75a6,6,0,0,1-.43,2.31A5.48,5.48,0,0,1,47,64.89a5.43,5.43,0,0,1-1.82,1.19,6,6,0,0,1-2.29.43H39.55a6.06,6.06,0,0,1-2.29-.43,5.41,5.41,0,0,1-1.82-1.19,5.54,5.54,0,0,1-1.2-1.82,6,6,0,0,1-.44-2.31V58.12a6,6,0,0,1,.44-2.31,5.4,5.4,0,0,1,3-3,6,6,0,0,1,2.29-.43h3.38a6,6,0,0,1,2.29.43A5.53,5.53,0,0,1,47,54a5.42,5.42,0,0,1,1.2,1.82,6.06,6.06,0,0,1,.43,2.31Zm-2.49-2.63a3.64,3.64,0,0,0-.24-1.34,2.89,2.89,0,0,0-1.69-1.69,3.58,3.58,0,0,0-1.32-.24H39.55a3.61,3.61,0,0,0-1.33.24,3,3,0,0,0-1,.66,2.92,2.92,0,0,0-.67,1,3.63,3.63,0,0,0-.24,1.34v2.63a3.63,3.63,0,0,0,.24,1.34,2.92,2.92,0,0,0,.67,1,3,3,0,0,0,1,.66,3.61,3.61,0,0,0,1.33.24h3.36a3.61,3.61,0,0,0,1.33-.24,3,3,0,0,0,1-.66,2.92,2.92,0,0,0,.67-1,3.64,3.64,0,0,0,.24-1.34Z" transform="translate(-3.16 -2.29)"/><path class="cls-1" d="M64.87,65.25a1.23,1.23,0,0,1-.1.5,1.28,1.28,0,0,1-.27.4,1.22,1.22,0,0,1-.4.26,1.26,1.26,0,0,1-.49.1,1.34,1.34,0,0,1-.47-.09,1.08,1.08,0,0,1-.42-.28l-9.11-9.51v9.69H51.13V53.63a1.19,1.19,0,0,1,.22-.7,1.34,1.34,0,0,1,.55-.47,1.26,1.26,0,0,1,.73-.07,1.18,1.18,0,0,1,.64.35l9.11,9.5V52.56h2.49Z" transform="translate(-3.16 -2.29)"/><path class="cls-1" d="M80.26,55.05h-10V66.31H67.77V53.82a1.26,1.26,0,0,1,.1-.49,1.27,1.27,0,0,1,.26-.4,1.18,1.18,0,0,1,.4-.27,1.28,1.28,0,0,1,.5-.1H80.26Zm-1.11,5.64H71.26V58.18h7.88Z" transform="translate(-3.16 -2.29)"/><path class="cls-2" d="M14.13,79.53Q12.89,78,11.8,76.38A47.19,47.19,0,0,1,9.7,26.85" transform="translate(-3.16 -2.29)"/><path class="cls-2" d="M74.07,90.91a47.2,47.2,0,0,1-47.58-.59" transform="translate(-3.16 -2.29)"/><path class="cls-2" d="M95.43,34.76A47.26,47.26,0,0,1,91,74.46" transform="translate(-3.16 -2.29)"/><path class="cls-2" d="M21.19,13.26q1.62-1.31,3.32-2.45A47.08,47.08,0,0,1,75.34,9.68l1,.6" transform="translate(-3.16 -2.29)"/><path class="cls-3" d="M67.27,88.33A42.3,42.3,0,0,1,13.22,29" transform="translate(-3.16 -2.29)"/><path class="cls-3" d="M33.32,10.82A42.3,42.3,0,0,1,89,66.51" transform="translate(-3.16 -2.29)"/><path class="cls-4" d="M8.83,33.49A44.54,44.54,0,0,1,35.25,7.77" transform="translate(-3.16 -2.29)"/><path class="cls-4" d="M33.94,90.91A44.55,44.55,0,0,1,9,66.06" transform="translate(-3.16 -2.29)"/><path class="cls-4" d="M91.92,64.91a44.53,44.53,0,0,1-26.47,26.4" transform="translate(-3.16 -2.29)"/><path class="cls-4" d="M65.53,7.89A44.53,44.53,0,0,1,92,34.6" transform="translate(-3.16 -2.29)"/><text class="cls-5" transform="translate(29.24 70.77)">4<tspan class="cls-6" x="5.84" y="0">/</tspan><tspan x="10.74" y="0">2</tspan><tspan class="cls-7" x="16.42" y="0">6</tspan><tspan x="22" y="0">/19</tspan></text><line class="cls-8" x1="27.3" y1="67.56" x2="16.41" y2="67.56"/><line class="cls-8" x1="77.32" y1="67.56" x2="66.43" y2="67.56"/></svg>