<?xml version="1.0" encoding="utf-8"?>
<!-- Generator: Adobe Illustrator 21.1.0, SVG Export Plug-In . SVG Version: 6.00 Build 0)  -->
<svg version="1.1" id="Layer_1" xmlns="http://www.w3.org/2000/svg" xmlns:xlink="http://www.w3.org/1999/xlink" x="0px" y="0px"
	 viewBox="0 0 95.3 95.3" style="enable-background:new 0 0 95.3 95.3;" xml:space="preserve">
<style type="text/css">
	.st0{fill:#FFFFFF;}
	.st1{fill:none;stroke:#FFFFFF;stroke-width:1.02;stroke-miterlimit:10;}
	.st2{fill:none;stroke:#FFFFFF;stroke-width:1.53;stroke-miterlimit:10;}
	.st3{fill:none;stroke:#FFFFFF;stroke-width:0.51;stroke-miterlimit:10;}
	.st4{font-family:'Audiowide-Regular';}
	.st5{font-size:7.55px;}
</style>
<title>GET</title>
<path class="st0" d="M34.1,47.2c-2.2,1.3-4.7,2-7.2,2c-6.3,0-10.4-3.9-10.4-10v-2.9c0-2.8,1.1-5.5,3.1-7.5c1.8-1.6,4.1-2.5,6.5-2.5
	c2.3-0.1,4.6,0.7,6.4,2.1v-0.5c0-0.7,0.2-1,0.8-1s0.8,0.3,0.8,1v3.5c0,0.7-0.3,1-0.8,1s-0.7-0.3-0.8-1c-0.2-2-2.9-3.5-6.4-3.5
	c-2-0.1-3.9,0.7-5.4,2.1c-1.7,1.7-2.7,3.9-2.8,6.3v2.8c0,5.2,3.4,8.5,9,8.5c1.9,0,3.8-0.4,5.5-1.3v-5.7h-5.4c-0.7,0-1-0.3-1-0.8
	s0.4-0.8,1-0.8h7.5c0.7,0,1.1,0.3,1.1,0.8s-0.3,0.8-1.1,0.8h-0.5V47.2z"/>
<path class="st0" d="M42.7,47h12.1v-4.6c0-0.7,0.3-1,0.8-1c0.5,0,0.8,0.3,0.8,1v6.2H39c-0.7,0-1-0.3-1-0.8c0-0.5,0.3-0.8,1-0.8h2.1
	V28.4H39c-0.7,0-1-0.3-1-0.8c0-0.5,0.3-0.8,1-0.8h16.6v5.4c0,0.7-0.3,1-0.8,1c-0.5,0-0.8-0.3-0.8-1v-3.8H42.7v8.1h5.6v-1.8
	c0-0.7,0.3-1,0.8-1c0.5,0,0.8,0.3,0.8,1v5.1c0,0.7-0.3,1-0.8,1s-0.8-0.3-0.8-1v-1.7h-5.6V47z"/>
<path class="st0" d="M73.2,47c0.7,0,1,0.3,1,0.8s-0.3,0.8-1,0.8h-9.7c-0.7,0-1-0.3-1-0.8c0-0.5,0.3-0.8,1-0.8h4.1V28.4h-6.4v2.8
	c0,0.7-0.3,1-0.8,1c-0.5,0-0.8-0.3-0.8-1v-4.4h17.6v4.4c0,0.8-0.2,1-0.8,1s-0.8-0.4-0.8-1v-2.8h-6.4V47H73.2z"/>
<path class="st0" d="M28.9,64h-9c-0.2,0-0.5,0-0.7-0.1c-0.3-0.1-0.5-0.1-0.8-0.2c-0.3-0.1-0.5-0.3-0.7-0.4c-0.2-0.2-0.5-0.4-0.6-0.7
	c-0.2-0.3-0.3-0.6-0.4-0.9c-0.1-0.4-0.2-0.8-0.2-1.2v-6.7c0-0.2,0-0.5,0.1-0.7c0.1-0.3,0.1-0.5,0.2-0.8c0.1-0.3,0.3-0.5,0.5-0.7
	c0.2-0.2,0.4-0.5,0.7-0.6c0.3-0.2,0.6-0.3,0.9-0.4c0.4-0.1,0.8-0.2,1.1-0.2h9v2.5h-9c-0.3,0-0.5,0.1-0.8,0.3
	c-0.2,0.2-0.3,0.5-0.3,0.8v6.7c0,0.5,0.3,1,0.8,1c0.1,0,0.1,0,0.2,0h9L28.9,64z"/>
<path class="st0" d="M45.5,58.5c0,0.8-0.1,1.6-0.4,2.3c-0.3,0.7-0.7,1.3-1.2,1.8c-0.5,0.5-1.1,0.9-1.8,1.2c-0.7,0.3-1.5,0.4-2.3,0.4
	h-3.3c-0.8,0-1.6-0.1-2.3-0.4c-0.7-0.3-1.3-0.7-1.8-1.2c-0.5-0.5-0.9-1.1-1.2-1.8c-0.3-0.7-0.4-1.5-0.4-2.3v-2.6
	c0-0.8,0.1-1.6,0.4-2.3c0.5-1.4,1.6-2.5,3-3c0.7-0.3,1.5-0.4,2.3-0.4h3.4c0.8,0,1.6,0.1,2.3,0.4c0.7,0.3,1.3,0.7,1.8,1.2
	c0.5,0.5,0.9,1.1,1.2,1.8c0.3,0.7,0.4,1.5,0.4,2.3L45.5,58.5z M43,55.8c0-0.5-0.1-0.9-0.2-1.3c-0.3-0.8-0.9-1.4-1.7-1.7
	c-0.4-0.2-0.9-0.2-1.3-0.2h-3.4c-0.5,0-0.9,0.1-1.3,0.2c-0.4,0.2-0.7,0.4-1,0.7c-0.3,0.3-0.5,0.6-0.7,1c-0.2,0.4-0.2,0.9-0.2,1.3
	v2.6c0,0.5,0.1,0.9,0.2,1.3c0.2,0.4,0.4,0.7,0.7,1c0.3,0.3,0.6,0.5,1,0.7c0.4,0.2,0.9,0.2,1.3,0.2h3.4c0.5,0,0.9-0.1,1.3-0.2
	c0.4-0.2,0.7-0.4,1-0.7c0.3-0.3,0.5-0.6,0.7-1c0.2-0.4,0.2-0.9,0.2-1.3L43,55.8z"/>
<path class="st0" d="M61.7,63c0,0.2,0,0.3-0.1,0.5c-0.1,0.1-0.2,0.3-0.3,0.4c-0.1,0.1-0.3,0.2-0.4,0.3c-0.2,0.1-0.3,0.1-0.5,0.1
	c-0.2,0-0.3,0-0.5-0.1c-0.2-0.1-0.3-0.2-0.4-0.3l-9.1-9.5V64H48V51.3c0-0.3,0.1-0.5,0.2-0.7c0.1-0.2,0.3-0.4,0.5-0.5
	c0.2-0.1,0.5-0.1,0.7-0.1c0.2,0,0.5,0.2,0.6,0.3l9.1,9.5v-9.7h2.5V63z"/>
<path class="st0" d="M77.1,52.8h-10V64h-2.5V51.5c0-0.2,0-0.3,0.1-0.5c0.1-0.1,0.1-0.3,0.3-0.4c0.1-0.1,0.2-0.2,0.4-0.3
	c0.2-0.1,0.3-0.1,0.5-0.1h11.2V52.8z M76,58.4h-7.9v-2.5H76L76,58.4z"/>
<path class="st1" d="M11,77.2c-0.8-1-1.6-2.1-2.3-3.2c-10-14.8-10.8-34-2.1-49.5"/>
<path class="st1" d="M70.9,88.6c-14.8,8.4-33,8.2-47.6-0.6"/>
<path class="st1" d="M92.3,32.5c4.5,13.2,2.8,27.8-4.4,39.7"/>
<path class="st1" d="M18,11c1.1-0.9,2.2-1.7,3.3-2.4C36.6-1.8,56.5-2.2,72.2,7.4l1,0.6"/>
<path class="st2" d="M64.1,86c-21.4,9.5-46.3-0.2-55.8-21.5c-5.4-12.2-4.7-26.2,1.8-37.8"/>
<path class="st2" d="M30.2,8.5C51.6-0.8,76.5,9,85.8,30.4c4.7,10.8,4.7,23,0,33.8"/>
<path class="st3" d="M5.7,31.2C10.3,19.2,20,9.8,32.1,5.5"/>
<path class="st3" d="M30.8,88.6C19.4,84.1,10.4,75.1,5.8,63.8"/>
<path class="st3" d="M88.8,62.6C84.2,74.9,74.6,84.5,62.3,89"/>
<path class="st3" d="M62.4,5.6c12.3,4.6,22,14.3,26.5,26.7"/>
<text transform="matrix(1 0 0 1 29.24 70.77)" class="st0 st4 st5">4</text>
<text transform="matrix(1 0 0 1 35.08 70.77)" class="st0 st4 st5">/</text>
<text transform="matrix(1 0 0 1 39.98 70.77)" class="st0 st4 st5">2</text>
<text transform="matrix(1 0 0 1 45.66 70.77)" class="st0 st4 st5">6</text>
<text transform="matrix(1 0 0 1 51.24 70.77)" class="st0 st4 st5">/19</text>
<line class="st1" x1="27.3" y1="67.6" x2="16.4" y2="67.6"/>
<line class="st1" x1="77.3" y1="67.6" x2="66.4" y2="67.6"/>
</svg>
