<svg xmlns="http://www.w3.org/2000/svg" viewBox="0 0 497.46 570.71"><defs><style>.cls-1{fill:#29332d;}</style></defs><title>Asset 1</title><g id="Layer_2" data-name="Layer 2"><g id="Layer_1-2" data-name="Layer 1"><path class="cls-1" d="M293.71,381.18l0,0-86.8-87.46a6.16,6.16,0,0,1,1.36-9.71l84.84-47.52a6.16,6.16,0,0,1,7.36,1l0,0,51,51.36a6.16,6.16,0,0,1,.94,7.45l-49,83.62a6.16,6.16,0,0,1-9.66,1.24m-72.37-90.4,75.46,76,42.57-72.63L295,249.51Z"/><path class="cls-1" d="M292.88,345.58h0L245,297.33a1.54,1.54,0,0,1,2.18-2.17h0l47.88,48.24a1.54,1.54,0,0,1-2.18,2.17"/><path class="cls-1" d="M303.45,307.92a16.5,16.5,0,1,1,.09-23.33,16.49,16.49,0,0,1-.09,23.33"/><path class="cls-1" d="M207.62,268.19a1.54,1.54,0,0,1-.44-1.28l4.2-32.84a1.54,1.54,0,0,1,.93-1.22l42.34-17.73a1.54,1.54,0,0,1,1.68.33h0L272.82,232a1.54,1.54,0,0,1-.36,2.44l-63,34a1.53,1.53,0,0,1-1.6-.09,1.44,1.44,0,0,1-.22-.18m6.7-32.85-3.71,29,58.57-31.57-14.29-14.4Z"/><path class="cls-1" d="M222.94,259.93a1.54,1.54,0,0,1-.44-1.26L226,228a1.54,1.54,0,0,1,3.06.35L225.56,259a1.54,1.54,0,0,1-2.62.91"/><path class="cls-1" d="M237.3,252.19a1.53,1.53,0,0,1-.44-1.26l3.26-28.4a1.54,1.54,0,0,1,3.06.35l-3.26,28.4a1.54,1.54,0,0,1-2.62.91"/><path class="cls-1" d="M250.82,244.29a1.53,1.53,0,0,1-.44-1.26l2.81-24.46a1.54,1.54,0,0,1,3.06.35l-2.81,24.46a1.54,1.54,0,0,1-2.62.91"/><path class="cls-1" d="M319.43,380a1.77,1.77,0,0,1-.18-.22,1.54,1.54,0,0,1-.09-1.6l34-63a1.54,1.54,0,0,1,2.44-.36l16.6,16.47h0a1.54,1.54,0,0,1,.33,1.68L354.77,375.3a1.54,1.54,0,0,1-1.22.93l-32.84,4.2a1.53,1.53,0,0,1-1.28-.44m35.43-61.56L323.29,377l29-3.71,17-40.57Z"/><path class="cls-1" d="M327.69,364.67a1.54,1.54,0,0,1,.91-2.62l30.71-3.53a1.54,1.54,0,0,1,.35,3.06L329,365.11a1.53,1.53,0,0,1-1.26-.44"/><path class="cls-1" d="M335.42,350.32a1.54,1.54,0,0,1,.91-2.62l28.4-3.26a1.54,1.54,0,0,1,.35,3.06l-28.4,3.26a1.54,1.54,0,0,1-1.26-.44"/><path class="cls-1" d="M343.33,336.8a1.52,1.52,0,0,1-.44-.91,1.54,1.54,0,0,1,1.35-1.71l24.46-2.81a1.54,1.54,0,0,1,.35,3.06l-24.46,2.81a1.54,1.54,0,0,1-1.26-.44"/><path class="cls-1" d="M356.14,537.88l0,0L51,230.37a6.15,6.15,0,0,1,2.92-10.32l296.52-71.81a6.15,6.15,0,0,1,5.8,1.63l0,0,82.64,83.27a6.16,6.16,0,0,1,1.6,5.83l-74,296a6.16,6.16,0,0,1-10.33,2.86M67.39,229.45l289.78,292,70.5-282.07L349.93,161Z"/><path class="cls-1" d="M151.67,438,150,436.33C26.71,312.07,48.42,227.9,49.4,224.38a6.16,6.16,0,0,1,11.87,3.28c-.1.37-4.39,17.64,2.49,47.73,8.06,35.3,31.48,88.24,95,152.26l1.57,1.58c58.45,58.45,107.91,83.08,142.86,93.08s55.38,5.35,55.79,5.25a6.16,6.16,0,0,1,3,11.93c-3.55.91-88,20.88-210.36-101.51"/><path class="cls-1" d="M414.19,309h0L280.94,174.74a1.54,1.54,0,0,1,0-2.18,1.58,1.58,0,0,1,2.18,0L416.38,306.84a1.54,1.54,0,0,1-2.18,2.17"/><path class="cls-1" d="M412,324h0L265.2,176a1.54,1.54,0,0,1,2.18-2.17h0l146.85,148A1.54,1.54,0,0,1,412,324"/><path class="cls-1" d="M332.76,534.93h0L53.6,253.58a1.54,1.54,0,0,1,2.18-2.17h0L334.94,532.76a1.54,1.54,0,0,1-2.18,2.17"/><polyline class="cls-1" points="138.12 205.99 159.55 227.58 126.13 239.32 103.42 216.44"/><path class="cls-1" d="M125,240.41h0l-22.7-22.88a1.54,1.54,0,0,1,0-2.18,1.51,1.51,0,0,1,2.18,0l22,22.19,30.21-10.61L137,207.07a1.54,1.54,0,0,1,0-2.18,1.46,1.46,0,0,1,2.18,0l21.43,21.59a1.54,1.54,0,0,1-.58,2.54l-33.42,11.74a1.54,1.54,0,0,1-1.6-.37"/><polyline class="cls-1" points="380.11 449.82 358.68 428.23 346.69 461.56 372.11 487.18"/><path class="cls-1" d="M371,488.27h0l-25.42-25.61a1.53,1.53,0,0,1-.35-1.61l12-33.34a1.54,1.54,0,0,1,1.11-1,1.41,1.41,0,0,1,1.43.42l21.43,21.59a1.54,1.54,0,0,1,0,2.18,1.62,1.62,0,0,1-2.18,0L359.31,431l-10.84,30.13,24.74,24.93a1.54,1.54,0,0,1-2.18,2.17"/><path class="cls-1" d="M342,201.73h0l-34.38-34.64a1.54,1.54,0,0,1,2.18-2.17h0l34.38,34.64a1.54,1.54,0,0,1-2.18,2.17"/><path class="cls-1" d="M420.81,281.12h0l-34.38-34.64a1.54,1.54,0,0,1,2.18-2.17h0L423,278.95a1.54,1.54,0,0,1-2.18,2.17"/><rect class="cls-1" x="391.3" y="143.83" width="11.55" height="95.52" transform="translate(-19.72 335.31) rotate(-44.78)"/><path class="cls-1" d="M425.53,230.65h0l-67.28-67.8a1.54,1.54,0,0,1,0-2.18l8.2-8.14a1.54,1.54,0,0,1,2.17,0h0l67.28,67.8a1.54,1.54,0,0,1,0,2.18l-8.2,8.14a1.54,1.54,0,0,1-2.17,0m-64-68.88,65.11,65.61,6-6L367.52,155.8Z"/><path class="cls-1" d="M183.63,299.45h0L125,240.4a1.54,1.54,0,0,1,2.18-2.17h0l58.59,59a1.54,1.54,0,0,1-2.18,2.17"/><path class="cls-1" d="M346.74,463.8h0l-58.59-59a1.54,1.54,0,0,1,2.18-2.17h0l58.59,59a1.54,1.54,0,0,1-2.18,2.17"/><path class="cls-1" d="M433.17,162.85a1.54,1.54,0,0,0-3.06-.38l-.45,3.65a11,11,0,0,0,3,.66Z"/><path class="cls-1" d="M428.71,173.9l-6.5,52.57a1.54,1.54,0,0,0,3.06.38l6.48-52.39a18.69,18.69,0,0,1-3-.56"/><path class="cls-1" d="M430.89,158.5a1.52,1.52,0,0,0-2.18,0l-4,3.93a11.13,11.13,0,0,0,1,1.18,10.93,10.93,0,0,0,1.17,1l4-3.93a1.54,1.54,0,0,0,0-2.18"/><path class="cls-1" d="M420.26,169c-.37-.37-.7-.76-1-1.15L392.12,194.8a1.54,1.54,0,0,0,0,2.18h0a1.54,1.54,0,0,0,2.17,0l27.12-26.91c-.39-.33-.78-.67-1.14-1"/><path class="cls-1" d="M425.83,159.12a1.54,1.54,0,1,0-.32-3.06l-2.9.31a11,11,0,0,0,.57,3Z"/><path class="cls-1" d="M414.92,157.18l-53.17,5.65a1.54,1.54,0,1,0,.32,3.06l53.31-5.67a18.63,18.63,0,0,1-.47-3"/><path class="cls-1" d="M245.17,389.27a1.54,1.54,0,0,1,0-2.18l17.41-17.41a1.54,1.54,0,0,1,2.18,2.18l-17.41,17.41a1.54,1.54,0,0,1-2.18,0"/><path class="cls-1" d="M198.42,342.52a1.54,1.54,0,0,1,0-2.18l17.41-17.41a1.54,1.54,0,0,1,2.18,2.18L200.6,342.52a1.54,1.54,0,0,1-2.18,0"/><rect class="cls-1" x="227.37" y="347.88" width="7.08" height="17.81" transform="translate(-184.31 266.18) rotate(-44.78)"/><path class="cls-1" d="M231.95,368.32h0l-12.55-12.64a3.85,3.85,0,0,1,0-5.45l5-5a3.86,3.86,0,0,1,5.44,0h0l12.55,12.64a3.85,3.85,0,0,1,0,5.45l-5,5a3.85,3.85,0,0,1-5.44,0"/><path class="cls-1" d="M198,84.76a5.85,5.85,0,1,1-5.85-5.85A5.85,5.85,0,0,1,198,84.76"/><path class="cls-1" d="M11.71,380.45a5.85,5.85,0,1,1-5.85-5.85,5.85,5.85,0,0,1,5.85,5.85"/><path class="cls-1" d="M378.48,5.85A5.85,5.85,0,1,1,372.62,0a5.85,5.85,0,0,1,5.85,5.85"/><path class="cls-1" d="M331.78,90.61a5.85,5.85,0,1,1-5.85-5.85,5.85,5.85,0,0,1,5.85,5.85"/><path class="cls-1" d="M463.86,521.43a5.85,5.85,0,1,1-5.85-5.85,5.85,5.85,0,0,1,5.85,5.85"/><path class="cls-1" d="M466.44,457.7a2.59,2.59,0,1,1-2.59-2.58,2.58,2.58,0,0,1,2.59,2.58"/><path class="cls-1" d="M258.84,14.29a2.59,2.59,0,1,1-2.59-2.58,2.58,2.58,0,0,1,2.59,2.58"/><path class="cls-1" d="M38.44,318.44a2.59,2.59,0,1,1-2.59-2.58,2.58,2.58,0,0,1,2.59,2.58"/><path class="cls-1" d="M93.93,495.29a2.58,2.58,0,1,1-2.59-2.58,2.58,2.58,0,0,1,2.59,2.58"/><path class="cls-1" d="M458.59,84.76A2.59,2.59,0,1,1,456,82.17a2.58,2.58,0,0,1,2.59,2.58"/><path class="cls-1" d="M96.52,116.89a2.59,2.59,0,1,1-2.59-2.58,2.58,2.58,0,0,1,2.59,2.58"/><path class="cls-1" d="M212.84,564.86A5.85,5.85,0,1,1,207,559a5.85,5.85,0,0,1,5.85,5.85"/><path class="cls-1" d="M497.46,318.44a5.85,5.85,0,1,1-5.85-5.85,5.85,5.85,0,0,1,5.85,5.85"/><polygon class="cls-1" points="53.15 261.08 321.2 531.31 244.91 511.01 131.49 416.76 88.77 350.77 53.15 261.08"/><path class="cls-1" d="M441.27,148.19a10.93,10.93,0,1,0-.06,15.46,10.95,10.95,0,0,0,.06-15.46"/></g></g></svg>