<?xml version="1.0" encoding="utf-8"?>
<!-- Generator: Adobe Illustrator 21.1.0, SVG Export Plug-In . SVG Version: 6.00 Build 0)  -->
<svg version="1.1" id="Layer_1" xmlns="http://www.w3.org/2000/svg" xmlns:xlink="http://www.w3.org/1999/xlink" x="0px" y="0px"
	 viewBox="0 0 143 131.5" style="enable-background:new 0 0 143 131.5;" xml:space="preserve">
<style type="text/css">
	.st0{fill:#FFFFFF;}
</style>
<title>logo@1x</title>
<path class="st0" d="M91.3,86.4L91.3,86.4l-39.6-0.2c-1.1,0-2-0.9-2-2c0-0.2,0-0.3,0.1-0.5l8.5-30c0.2-0.8,1-1.4,1.9-1.4l0,0
	l23.2,0.1c0.9,0,1.7,0.6,1.9,1.5l7.9,30.1c0.2,0.6,0,1.2-0.4,1.7C92.4,86.1,91.9,86.4,91.3,86.4z M54.3,82.3l34.4,0.1l-6.8-26.2
	l-20.2-0.1L54.3,82.3z"/>
<path class="st0" d="M83,78.5L83,78.5l-21.8-0.1c-0.3,0-0.5-0.2-0.5-0.5c0-0.3,0.2-0.5,0.5-0.5l0,0L83,77.5c0.3,0,0.5,0.2,0.5,0.5
	S83.3,78.5,83,78.5L83,78.5z"/>
<circle class="st0" cx="71.6" cy="67.5" r="5.3"/>
<path class="st0" d="M46.1,80.3c-0.2,0-0.3-0.1-0.4-0.2l-6.5-8.4c-0.1-0.1-0.1-0.3-0.1-0.5l5.6-13.6c0.1-0.2,0.3-0.3,0.4-0.3l0,0
	h7.5c0.2,0,0.3,0.1,0.4,0.2c0.1,0.1,0.1,0.3,0.1,0.4l-6.6,22C46.5,80.1,46.4,80.2,46.1,80.3L46.1,80.3z M40.1,71.3l5.7,7.4L52,58.2
	h-6.5L40.1,71.3z"/>
<path class="st0" d="M47.7,74.9c-0.2,0-0.3-0.1-0.4-0.2L41.1,67c-0.1-0.2-0.1-0.5,0.2-0.7c0.2-0.1,0.4-0.1,0.6,0.1l6.2,7.8
	c0.2,0.2,0.1,0.5-0.1,0.7c0,0,0,0,0,0C47.9,74.9,47.8,74.9,47.7,74.9z"/>
<path class="st0" d="M49.2,69.9c-0.1,0-0.3-0.1-0.4-0.2l-5.7-7.2c-0.2-0.2-0.1-0.5,0.1-0.7c0.2-0.2,0.5-0.1,0.7,0.1l0,0l5.7,7.2
	c0.2,0.2,0.1,0.5-0.1,0.7c0,0,0,0,0,0C49.4,69.9,49.3,69.9,49.2,69.9z"/>
<path class="st0" d="M50.5,65.1c-0.2,0-0.3-0.1-0.4-0.2l-4.9-6.2c-0.2-0.2-0.1-0.5,0.1-0.7c0.2-0.2,0.5-0.1,0.7,0.1c0,0,0,0,0,0
	l4.9,6.2c0.2,0.2,0.1,0.5-0.1,0.7C50.7,65,50.6,65.1,50.5,65.1z"/>
<path class="st0" d="M96.8,80.3L96.8,80.3c-0.3,0-0.4-0.2-0.5-0.3l-6.6-22c0-0.1,0-0.3,0.1-0.4c0.1-0.1,0.2-0.2,0.4-0.2h7.5l0,0
	c0.2,0,0.4,0.1,0.4,0.3l5.6,13.6c0.1,0.2,0,0.3-0.1,0.5l-6.5,8.3C97.2,80.2,97,80.3,96.8,80.3z M90.9,58.3L97,78.8l5.7-7.4
	l-5.4-13.1L90.9,58.3z"/>
<path class="st0" d="M95.3,74.9c-0.1,0-0.2,0-0.3-0.1c-0.2-0.2-0.2-0.5-0.1-0.7c0,0,0,0,0,0l6.2-7.8c0.2-0.2,0.5-0.2,0.7,0
	c0.2,0.2,0.2,0.4,0.1,0.6l-6.2,7.8C95.6,74.9,95.4,74.9,95.3,74.9z"/>
<path class="st0" d="M93.7,69.9c-0.1,0-0.2,0-0.3-0.1c-0.2-0.2-0.2-0.5-0.1-0.7c0,0,0,0,0,0l5.7-7.2c0.2-0.2,0.5-0.2,0.7-0.1
	s0.2,0.5,0.1,0.7l-5.7,7.2C94,69.8,93.9,69.9,93.7,69.9z"/>
<path class="st0" d="M92.5,65.1c-0.1,0-0.2,0-0.3-0.1c-0.2-0.2-0.3-0.5-0.1-0.7l4.9-6.2c0.2-0.2,0.5-0.2,0.7-0.1c0,0,0,0,0,0
	c0.2,0.2,0.3,0.5,0.1,0.7c0,0,0,0,0,0l-4.9,6.2C92.8,65,92.6,65.1,92.5,65.1z"/>
<path class="st0" d="M141,107.8L141,107.8L1.9,107.3c-1.1,0-2-0.9-1.9-2.1c0-0.3,0.1-0.7,0.3-0.9l51-83.6c0.4-0.6,1-0.9,1.7-1l0,0
	l37.7,0.1c0.7,0,1.3,0.4,1.7,1l50.4,84c0.6,1,0.2,2.2-0.7,2.7C141.7,107.7,141.4,107.8,141,107.8L141,107.8z M5.5,103.3l132.1,0.5
	l-48-80l-35.5-0.2L5.5,103.3z"/>
<path class="st0" d="M71.9,131.5h-0.8c-56.2-0.2-70.4-24.2-71-25.3c-0.5-1,0-2.2,1-2.6c0.9-0.4,1.9-0.1,2.4,0.6l0,0
	c0.1,0.2,13.9,23.1,67.5,23.3h0.7c53.1,0,67.3-22.6,67.4-22.8c0.6-0.9,1.8-1.2,2.7-0.7c0.9,0.6,1.2,1.8,0.7,2.7
	C142.1,107.8,127.5,131.5,71.9,131.5z"/>
<path class="st0" d="M102.3,42.7L102.3,42.7l-60.7-0.2c-0.3,0-0.5-0.2-0.5-0.5s0.2-0.5,0.5-0.5l60.7,0.2c0.3,0,0.5,0.2,0.5,0.5
	c0,0,0,0,0,0C102.8,42.4,102.6,42.7,102.3,42.7C102.3,42.7,102.3,42.7,102.3,42.7z"/>
<path class="st0" d="M105.2,46.5L105.2,46.5l-66.9-0.3c-0.3,0-0.5-0.2-0.5-0.5c0,0,0,0,0,0c0-0.3,0.2-0.5,0.5-0.5l0,0l66.9,0.3
	c0.3,0,0.5,0.2,0.5,0.5S105.5,46.6,105.2,46.5L105.2,46.5z"/>
<path class="st0" d="M135,112.4L135,112.4L7.8,111.9c-0.3,0-0.5-0.2-0.5-0.5c0-0.3,0.2-0.5,0.5-0.5c0,0,0,0,0,0l0,0l127.2,0.5
	c0.3,0,0.5,0.2,0.5,0.5S135.3,112.5,135,112.4L135,112.4z"/>
<polyline class="st0" points="16.2,81.9 26,82 21,92.2 10.7,92.2 "/>
<path class="st0" d="M21,92.7L21,92.7H10.7c-0.3,0-0.5-0.2-0.5-0.5c0,0,0,0,0,0c0-0.3,0.2-0.5,0.5-0.5c0,0,0,0,0,0h10l4.5-9.3h-9
	c-0.3,0-0.5-0.2-0.5-0.5c0-0.3,0.2-0.5,0.4-0.5c0,0,0,0,0.1,0h9.8c0.2,0,0.3,0.1,0.4,0.2c0.1,0.1,0.1,0.3,0,0.5l-4.8,10.3
	C21.4,92.6,21.2,92.7,21,92.7z"/>
<polyline class="st0" points="126.5,82.4 116.7,82.3 121.6,92.6 133.1,92.7 "/>
<path class="st0" d="M133.1,93.2L133.1,93.2h-11.6c-0.2,0-0.4-0.1-0.4-0.3l-4.9-10.3c-0.1-0.1-0.1-0.3,0-0.5
	c0.1-0.1,0.2-0.2,0.4-0.2h9.8c0.3,0,0.5,0.2,0.5,0.5c0,0,0,0,0,0c0,0.3-0.2,0.5-0.5,0.5h-9l4.4,9.3h11.3c0.3,0,0.5,0.2,0.5,0.5
	S133.4,93.1,133.1,93.2L133.1,93.2z"/>
<path class="st0" d="M61.5,34.7L61.5,34.7H45.8c-0.3,0-0.5-0.2-0.5-0.5c0-0.3,0.2-0.5,0.5-0.5c0,0,0,0,0,0l0,0l15.7,0.1
	c0.3,0,0.5,0.2,0.5,0.5S61.8,34.8,61.5,34.7L61.5,34.7z"/>
<path class="st0" d="M97.4,34.8L97.4,34.8l-15.7-0.1c-0.3,0-0.5-0.2-0.5-0.5s0.2-0.5,0.5-0.5l0,0l15.7,0.1c0.3,0,0.5,0.2,0.5,0.5
	S97.7,34.8,97.4,34.8L97.4,34.8z"/>
<rect x="69.9" y="4.6" transform="matrix(3.839715e-03 -1 1 3.839715e-03 51.546 91.5144)" class="st0" width="3.7" height="30.7"/>
<path class="st0" d="M87,22.3L87,22.3l-30.7-0.1c-0.1,0-0.3-0.1-0.3-0.1c-0.1-0.1-0.2-0.2-0.2-0.4V18c0-0.3,0.2-0.5,0.5-0.5l0,0
	L87,17.6c0.3,0,0.5,0.2,0.5,0.5c0,0,0,0,0,0v3.7C87.5,22.1,87.3,22.3,87,22.3z M56.9,21.2l29.7,0.1v-2.7l-29.7-0.1L56.9,21.2z"/>
<path class="st0" d="M47.7,92.8L47.7,92.8L21,92.7c-0.3,0-0.5-0.2-0.5-0.5c0-0.3,0.2-0.5,0.5-0.5l0,0l26.7,0.1
	c0.3,0,0.5,0.2,0.5,0.5S48,92.8,47.7,92.8L47.7,92.8z"/>
<path class="st0" d="M122.1,93.1L122.1,93.1L95.4,93c-0.3,0-0.5-0.2-0.5-0.5s0.2-0.5,0.5-0.5l0,0l26.7,0.1c0.3,0,0.5,0.2,0.5,0.5
	C122.6,92.9,122.4,93.1,122.1,93.1C122.1,93.1,122.1,93.1,122.1,93.1z"/>
<path class="st0" d="M86.1,21.5L75.7,8.1c-0.3,0.2-0.5,0.4-0.8,0.6l10.5,13.4c0.1,0.1,0.2,0.2,0.4,0.2c0.1,0,0.2,0,0.3-0.1
	C86.2,22,86.3,21.7,86.1,21.5C86.1,21.5,86.1,21.5,86.1,21.5z"/>
<path class="st0" d="M82.1,99.2c-0.3,0-0.5-0.2-0.5-0.5v-7.9c0-0.3,0.2-0.5,0.5-0.5c0.3,0,0.5,0.2,0.5,0.5v7.9
	C82.6,99,82.4,99.3,82.1,99.2z"/>
<path class="st0" d="M60.9,99.2c-0.3,0-0.5-0.2-0.5-0.5v-7.9c0-0.3,0.2-0.5,0.5-0.5s0.5,0.2,0.5,0.5v7.9
	C61.4,99,61.2,99.3,60.9,99.2C60.9,99.3,60.9,99.3,60.9,99.2z"/>
<rect x="70.3" y="92.3" transform="matrix(3.839715e-03 -1 1 3.839715e-03 -23.9151 166.2402)" class="st0" width="2.3" height="5.7"/>
<path class="st0" d="M74.3,97.5L74.3,97.5h-5.7c-0.3,0-0.6-0.1-0.9-0.4c-0.2-0.2-0.4-0.5-0.4-0.9V94c0-0.7,0.6-1.2,1.2-1.2h0l0,0
	h5.7c0.3,0,0.6,0.1,0.9,0.4c0.2,0.2,0.4,0.6,0.4,0.9v2.3C75.6,97,75,97.5,74.3,97.5z"/>
<path class="st0" d="M71.8,9.5c-0.2,0-0.3,0-0.5,0v12.3c0,0.3,0.2,0.5,0.5,0.5l0,0c0.3,0,0.5-0.2,0.5-0.5V9.5L71.8,9.5z"/>
<path class="st0" d="M67.9,8L57.2,21.4c-0.2,0.2-0.1,0.5,0.1,0.7c0,0,0,0,0,0c0.1,0.1,0.2,0.1,0.3,0.1c0.1,0,0.3-0.1,0.4-0.2
	L68.7,8.6C68.5,8.4,68.2,8.2,67.9,8z"/>
<path class="st0" d="M71.9,0c-1.9,0-3.5,1.6-3.5,3.5S69.9,7,71.9,7c1.9,0,3.5-1.6,3.5-3.5C75.4,1.6,73.8,0,71.9,0z"/>
</svg>
