<svg viewBox="0 0 143 131.5" xmlns="http://www.w3.org/2000/svg"><g fill="#fff"><path d="m91.3 86.4-39.6-.2c-1.1 0-2-.9-2-2 0-.2 0-.3.1-.5l8.5-30c.2-.8 1-1.4 1.9-1.4l23.2.1c.9 0 1.7.6 1.9 1.5l7.9 30.1c.2.6 0 1.2-.4 1.7-.4.4-.9.7-1.5.7zm-37-4.1 34.4.1-6.8-26.2-20.2-.1z"/><path d="m83 78.5-21.8-.1c-.3 0-.5-.2-.5-.5s.2-.5.5-.5l21.8.1c.3 0 .5.2.5.5s-.2.5-.5.5z"/><circle cx="71.6" cy="67.5" r="5.3"/><path d="m46.1 80.3c-.2 0-.3-.1-.4-.2l-6.5-8.4c-.1-.1-.1-.3-.1-.5l5.6-13.6c.1-.2.3-.3.4-.3h7.5c.2 0 .3.1.4.2s.1.3.1.4l-6.6 22c0 .2-.1.3-.4.4zm-6-9 5.7 7.4 6.2-20.5h-6.5z"/><path d="m47.7 74.9c-.2 0-.3-.1-.4-.2l-6.2-7.7c-.1-.2-.1-.5.2-.7.2-.1.4-.1.6.1l6.2 7.8c.2.2.1.5-.1.7zm1.5-5c-.1 0-.3-.1-.4-.2l-5.7-7.2c-.2-.2-.1-.5.1-.7s.5-.1.7.1l5.7 7.2c.2.2.1.5-.1.7-.1.1-.2.1-.3.1zm1.3-4.8c-.2 0-.3-.1-.4-.2l-4.9-6.2c-.2-.2-.1-.5.1-.7s.5-.1.7.1l4.9 6.2c.2.2.1.5-.1.7-.1 0-.2.1-.3.1zm46.3 15.2c-.3 0-.4-.2-.5-.3l-6.6-22c0-.1 0-.3.1-.4s.2-.2.4-.2h7.5c.2 0 .4.1.4.3l5.6 13.6c.1.2 0 .3-.1.5l-6.5 8.3c.1.1-.1.2-.3.2zm-5.9-22 6.1 20.5 5.7-7.4-5.4-13.1z"/><path d="m95.3 74.9c-.1 0-.2 0-.3-.1-.2-.2-.2-.5-.1-.7l6.2-7.8c.2-.2.5-.2.7 0s.2.4.1.6l-6.2 7.8c-.1.2-.3.2-.4.2zm-1.6-5c-.1 0-.2 0-.3-.1-.2-.2-.2-.5-.1-.7l5.7-7.2c.2-.2.5-.2.7-.1s.2.5.1.7l-5.7 7.2c-.1.1-.2.2-.4.2zm-1.2-4.8c-.1 0-.2 0-.3-.1-.2-.2-.3-.5-.1-.7l4.9-6.2c.2-.2.5-.2.7-.1.2.2.3.5.1.7l-4.9 6.2c-.1.1-.3.2-.4.2z"/><path d="m141 107.8-139.1-.5c-1.1 0-2-.9-1.9-2.1 0-.3.1-.7.3-.9l51-83.6c.4-.6 1-.9 1.7-1l37.7.1c.7 0 1.3.4 1.7 1l50.4 84c.6 1 .2 2.2-.7 2.7-.4.2-.7.3-1.1.3zm-135.5-4.5 132.1.5-48-80-35.5-.2-48.6 79.7z"/><path d="m71.9 131.5h-.8c-56.2-.2-70.4-24.2-71-25.3-.5-1 0-2.2 1-2.6.9-.4 1.9-.1 2.4.6.1.2 13.9 23.1 67.5 23.3h.7c53.1 0 67.3-22.6 67.4-22.8.6-.9 1.8-1.2 2.7-.7.9.6 1.2 1.8.7 2.7-.4 1.1-15 24.8-70.6 24.8zm30.4-88.8-60.7-.2c-.3 0-.5-.2-.5-.5s.2-.5.5-.5l60.7.2c.3 0 .5.2.5.5 0 .2-.2.5-.5.5zm2.9 3.8-66.9-.3c-.3 0-.5-.2-.5-.5s.2-.5.5-.5l66.9.3c.3 0 .5.2.5.5s-.2.6-.5.5z"/><path d="m135 112.4-127.2-.5c-.3 0-.5-.2-.5-.5s.2-.5.5-.5l127.2.5c.3 0 .5.2.5.5s-.2.6-.5.5zm-118.8-30.5 9.8.1-5 10.2h-10.3"/><path d="m21 92.7h-10.3c-.3 0-.5-.2-.5-.5s.2-.5.5-.5h10l4.5-9.3h-9c-.3 0-.5-.2-.5-.5s.2-.5.4-.5h9.9c.2 0 .3.1.4.2s.1.3 0 .5l-4.8 10.3c-.2.2-.4.3-.6.3zm105.5-10.3-9.8-.1 4.9 10.3 11.5.1"/><path d="m133.1 93.2h-11.6c-.2 0-.4-.1-.4-.3l-4.9-10.3c-.1-.1-.1-.3 0-.5.1-.1.2-.2.4-.2h9.8c.3 0 .5.2.5.5s-.2.5-.5.5h-9l4.4 9.3h11.3c.3 0 .5.2.5.5s-.2.4-.5.5zm-71.6-58.5h-15.7c-.3 0-.5-.2-.5-.5s.2-.5.5-.5l15.7.1c.3 0 .5.2.5.5s-.2.5-.5.4zm35.9.1-15.7-.1c-.3 0-.5-.2-.5-.5s.2-.5.5-.5l15.7.1c.3 0 .5.2.5.5s-.2.5-.5.5z"/><path d="m69.9 4.6h3.7v30.7h-3.7z" transform="matrix(.00383971 -.99999263 .99999263 .00383971 51.545816 91.514119)"/><path d="m87 22.3-30.7-.1c-.1 0-.3-.1-.3-.1-.1-.1-.2-.2-.2-.4v-3.7c0-.3.2-.5.5-.5l30.7.1c.3 0 .5.2.5.5v3.7c0 .3-.2.5-.5.5zm-30.1-1.1 29.7.1v-2.7l-29.7-.1zm-9.2 71.6-26.7-.1c-.3 0-.5-.2-.5-.5s.2-.5.5-.5l26.7.1c.3 0 .5.2.5.5s-.2.5-.5.5zm74.4.3-26.7-.1c-.3 0-.5-.2-.5-.5s.2-.5.5-.5l26.7.1c.3 0 .5.2.5.5s-.2.5-.5.5z"/><path d="m86.1 21.5-10.4-13.4c-.3.2-.5.4-.8.6l10.5 13.4c.1.1.2.2.4.2.1 0 .2 0 .3-.1.1-.2.2-.5 0-.7zm-4 77.7c-.3 0-.5-.2-.5-.5v-7.9c0-.3.2-.5.5-.5s.5.2.5.5v7.9c0 .3-.2.6-.5.5zm-21.2 0c-.3 0-.5-.2-.5-.5v-7.9c0-.3.2-.5.5-.5s.5.2.5.5v7.9c0 .3-.2.6-.5.5 0 .1 0 .1 0 0z"/><path d="m70.3 92.3h2.3v5.7h-2.3z" transform="matrix(.00383971 -.99999263 .99999263 .00383971 -23.914769 166.239228)"/><path d="m74.3 97.5h-5.7c-.3 0-.6-.1-.9-.4-.2-.2-.4-.5-.4-.9v-2.2c0-.7.6-1.2 1.2-1.2h5.7c.3 0 .6.1.9.4.2.2.4.6.4.9v2.3c.1.6-.5 1.1-1.2 1.1zm-2.5-88h-.5v12.3c0 .3.2.5.5.5s.5-.2.5-.5v-12.3zm-3.9-1.5-10.7 13.4c-.2.2-.1.5.1.7.1.1.2.1.3.1s.3-.1.4-.2l10.7-13.4c-.2-.2-.5-.4-.8-.6zm4-8c-1.9 0-3.5 1.6-3.5 3.5s1.5 3.5 3.5 3.5c1.9 0 3.5-1.6 3.5-3.5s-1.6-3.5-3.5-3.5z"/></g></svg>