<svg xmlns="http://www.w3.org/2000/svg" viewBox="0 0 62.8 62.8"><defs><style>.cls-1,.cls-2{fill:none;}.cls-1,.cls-2,.cls-3{stroke:#231f20;stroke-miterlimit:10;}.cls-1{stroke-width:4.37px;}.cls-2,.cls-3{stroke-width:1.94px;}.cls-3{fill:#57ffc2;}.cls-4{fill:#231f20;}</style></defs><title>moon_icon@1x</title><g id="Layer_2" data-name="Layer 2"><g id="Layer_1-2" data-name="Layer 1"><circle class="cls-1" cx="31.4" cy="31.4" r="29.22"/><circle class="cls-2" cx="36.9" cy="16.01" r="6.08"/><circle class="cls-2" cx="38.49" cy="30.67" r="4.05"/><line class="cls-3" x1="26.16" y1="19.26" x2="18.53" y2="20.59"/><line class="cls-3" x1="27.68" y1="11.04" x2="24.67" y2="8.59"/><circle class="cls-4" cx="46.06" cy="22.09" r="1.03"/><circle class="cls-4" cx="10.3" cy="40.27" r="1.03"/><path class="cls-2" d="M12.39,45a6.11,6.11,0,0,0-5.13,2.8,29.87,29.87,0,0,0,8.63,8.35,5.44,5.44,0,0,0,2.64-5A6.14,6.14,0,0,0,12.39,45Z"/><line class="cls-3" x1="22.35" y1="52.21" x2="27.68" y2="52.21"/><line class="cls-3" x1="18.53" y1="45.02" x2="22.35" y2="40.27"/><circle class="cls-4" cx="52.67" cy="31.4" r="1.4"/></g></g></svg>