<svg viewBox="0 0 62.8 62.8" xmlns="http://www.w3.org/2000/svg"><g stroke="#231f20" stroke-miterlimit="10"><circle cx="31.4" cy="31.4" fill="none" r="29.22" stroke-width="4.37"/><circle cx="36.9" cy="16.01" fill="none" r="6.08" stroke-width="1.94"/><circle cx="38.49" cy="30.67" fill="none" r="4.05" stroke-width="1.94"/><path d="m26.16 19.26-7.63 1.33m9.15-9.55-3.01-2.45" fill="#57ffc2" stroke-width="1.94"/></g><circle cx="46.06" cy="22.09" fill="#231f20" r="1.03"/><circle cx="10.3" cy="40.27" fill="#231f20" r="1.03"/><path d="m12.39 45a6.11 6.11 0 0 0 -5.13 2.8 29.87 29.87 0 0 0 8.63 8.35 5.44 5.44 0 0 0 2.64-5 6.14 6.14 0 0 0 -6.14-6.15z" fill="none" stroke="#231f20" stroke-miterlimit="10" stroke-width="1.94"/><path d="m22.35 52.21h5.33m-9.15-7.19 3.82-4.75" fill="#57ffc2" stroke="#231f20" stroke-miterlimit="10" stroke-width="1.94"/><circle cx="52.67" cy="31.4" fill="#231f20" r="1.4"/></svg>