<svg xmlns="http://www.w3.org/2000/svg" viewBox="0 0 70.53 65.19"><defs><style>.cls-1{fill:#231f20}.cls-2,.cls-3{fill:none;stroke:#231f20;stroke-miterlimit:10;stroke-width:2.46px}.cls-2{stroke-linecap:round}</style></defs><g id="Layer_2" data-name="Layer 2"><g id="Layer_1-2" data-name="Layer 1"><path class="cls-1" transform="rotate(-22.35 6.955 35.876)" d="M2.48 34.18h8.98v3.38H2.48z"/><path class="cls-2" d="M16.73 17.26l13.39-5.51"/><path class="cls-3" d="M21.73 15.4l1.84 4.47"/><path fill="#fff" d="M33.59 34.36L18.12 63.01"/><path class="cls-3" d="M23.36 52.83H43"/><path class="cls-2" d="M1.23 33.75l3.05 7.7"/><path class="cls-1" d="M35.66 32.38a2.18 2.18 0 0 0-2.93 1.2zM50.22 62.08l-11.67-24.8a6.35 6.35 0 0 1-3.9 1.95l11.61 24.71a2.19 2.19 0 0 0 4-1.86z"/><path class="cls-1" d="M49.63 7.35a3.5 3.5 0 0 0-.46.14L7.39 24.66a3 3 0 0 0-1.65 4L11 41.43a3 3 0 0 0 1.65 1.65 2.94 2.94 0 0 0 1.16.24 3.15 3.15 0 0 0 1.19-.23l41.74-17.18a2.78 2.78 0 0 0 .42-.22zM14.37 38.93L9.9 28l39.86-16.35 4.48 10.89z"/><path class="cls-1" d="M58.31 29a3.18 3.18 0 0 1-3-2L47.58 8.11A3.18 3.18 0 0 1 49.31 4l9-3.72A3.18 3.18 0 0 1 62.51 2l7.78 18.9a3.18 3.18 0 0 1-1.73 4.15l-9.05 3.72a3.17 3.17 0 0 1-1.2.23zM52.07 7.55L59 24.28l6.85-2.82-6.93-16.73zM66.9 21l.83 2zM39.89 30.64a6.26 6.26 0 0 1 .42 2.26 6.38 6.38 0 0 1-12.21 2.59l-2.27.93a8.84 8.84 0 0 0 16.94-3.52 8.66 8.66 0 0 0-.61-3.19z"/><path class="cls-1" d="M29.46 37.42L16.2 62a2.19 2.19 0 0 0 .88 3 2.19 2.19 0 0 0 3-.88l13.4-24.81a6.33 6.33 0 0 1-4.02-1.89z"/></g></g></svg>
