<svg xmlns="http://www.w3.org/2000/svg" viewBox="0 0 70.53 65.19"><defs><style>.cls-1{fill:#231f20;}.cls-2,.cls-3{fill:none;stroke:#231f20;stroke-miterlimit:10;stroke-width:2.46px;}.cls-2{stroke-linecap:round;}.cls-4{fill:#fff;}</style></defs><title>telescope_icon@1x</title><g id="Layer_2" data-name="Layer 2"><g id="Layer_1-2" data-name="Layer 1"><rect class="cls-1" x="2.48" y="34.18" width="8.98" height="3.38" transform="translate(-13.12 5.34) rotate(-22.35)"/><line class="cls-2" x1="16.73" y1="17.26" x2="30.12" y2="11.75"/><line class="cls-3" x1="21.73" y1="15.4" x2="23.57" y2="19.87"/><line class="cls-4" x1="33.59" y1="34.36" x2="18.12" y2="63.01"/><line class="cls-3" x1="23.36" y1="52.83" x2="43" y2="52.83"/><line class="cls-2" x1="1.23" y1="33.75" x2="4.28" y2="41.45"/><path class="cls-1" d="M35.66,32.38a2.18,2.18,0,0,0-2.93,1.2Z"/><path class="cls-1" d="M50.22,62.08,38.55,37.28a6.35,6.35,0,0,1-3.9,1.95L46.26,63.94a2.19,2.19,0,0,0,4-1.86Z"/><path class="cls-1" d="M49.63,7.35a3.5,3.5,0,0,0-.46.14L7.39,24.66a3,3,0,0,0-1.65,4L11,41.43a3,3,0,0,0,1.65,1.65,2.94,2.94,0,0,0,1.16.24A3.15,3.15,0,0,0,15,43.09L56.74,25.91a2.78,2.78,0,0,0,.42-.22ZM14.37,38.93,9.9,28,49.76,11.65l4.48,10.89Z"/><path class="cls-1" d="M58.31,29a3.18,3.18,0,0,1-3-2L47.58,8.11A3.18,3.18,0,0,1,49.31,4l9-3.72A3.18,3.18,0,0,1,62.51,2L70.29,20.9a3.18,3.18,0,0,1-1.73,4.15l-9.05,3.72A3.17,3.17,0,0,1,58.31,29ZM52.07,7.55,59,24.28l6.85-2.82L58.92,4.73ZM66.9,21l.83,2Z"/><path class="cls-1" d="M39.89,30.64a6.26,6.26,0,0,1,.42,2.26A6.38,6.38,0,0,1,28.1,35.49l-2.27.93A8.84,8.84,0,0,0,42.77,32.9a8.66,8.66,0,0,0-.61-3.19Z"/><path class="cls-1" d="M29.46,37.42,16.2,62a2.19,2.19,0,0,0,.88,3,2.19,2.19,0,0,0,3-.88l13.4-24.81A6.33,6.33,0,0,1,29.46,37.42Z"/></g></g></svg>