<svg xmlns="http://www.w3.org/2000/svg" viewBox="0 0 102.44 102.44"><defs><style>.cls-1{fill:#29332c;}.cls-2{fill:#fff;}</style></defs><title>twitter_icon@1x</title><g id="Layer_2" data-name="Layer 2"><g id="Layer_1-2" data-name="Layer 1"><circle class="cls-1" cx="51.22" cy="51.22" r="51.22"/><path class="cls-2" d="M25.35,71.81a33.4,33.4,0,0,0,18.09,5.31C65.37,77.12,77.75,58.6,77,42a24.1,24.1,0,0,0,5.89-6.11,23.81,23.81,0,0,1-6.78,1.86,11.89,11.89,0,0,0,5.19-6.53,23.8,23.8,0,0,1-7.5,2.86A11.81,11.81,0,0,0,53.69,44.84,33.52,33.52,0,0,1,29.35,32.5,11.83,11.83,0,0,0,33,48.27a11.66,11.66,0,0,1-5.35-1.48,11.82,11.82,0,0,0,9.47,11.73,11.9,11.9,0,0,1-5.33.2,11.82,11.82,0,0,0,11,8.2A23.75,23.75,0,0,1,25.35,71.81Z"/></g></g></svg>