<?xml version="1.0" encoding="utf-8"?>
<!-- Generator: Adobe Illustrator 21.1.0, SVG Export Plug-In . SVG Version: 6.00 Build 0)  -->
<svg version="1.1" id="Layer_1" xmlns="http://www.w3.org/2000/svg" xmlns:xlink="http://www.w3.org/1999/xlink" x="0px" y="0px"
	 viewBox="0 0 102.4 102.4" style="enable-background:new 0 0 102.4 102.4;" xml:space="preserve">
<style type="text/css">
	.st0{fill:#A1C350;}
	.st1{fill:#FFFFFF;}
</style>
<circle class="st0" cx="51.2" cy="51.2" r="51.2"/>
<path class="st1" d="M25.4,71.8c5.4,3.5,11.7,5.3,18.1,5.3C65.4,77.1,77.8,58.6,77,42c2.3-1.7,4.3-3.7,5.9-6.1
	c-2.2,1-4.4,1.6-6.8,1.9c2.5-1.5,4.3-3.8,5.2-6.5c-2.3,1.4-4.9,2.3-7.5,2.9c-4.5-4.8-11.9-5-16.7-0.5c-3.1,2.9-4.4,7.2-3.4,11.3
	c-9.5-0.5-18.3-5-24.3-12.3c-3.1,5.4-1.5,12.3,3.7,15.8c-1.9-0.1-3.7-0.6-5.4-1.5c-0.1,5.7,3.9,10.6,9.5,11.7
	c-1.7,0.5-3.6,0.5-5.3,0.2c1.5,4.8,6,8.1,11,8.2C37.9,70.8,31.6,72.5,25.4,71.8z"/>
</svg>
