<svg viewBox="0 0 102.44 102.44" xmlns="http://www.w3.org/2000/svg"><circle cx="51.22" cy="51.22" fill="#29332c" r="51.22"/><path d="m25.35 71.81a33.4 33.4 0 0 0 18.09 5.31c21.93 0 34.31-18.52 33.56-35.12a24.1 24.1 0 0 0 5.89-6.11 23.81 23.81 0 0 1 -6.78 1.86 11.89 11.89 0 0 0 5.19-6.53 23.8 23.8 0 0 1 -7.5 2.86 11.81 11.81 0 0 0 -20.11 10.76 33.52 33.52 0 0 1 -24.34-12.34 11.83 11.83 0 0 0 3.65 15.77 11.66 11.66 0 0 1 -5.35-1.48 11.82 11.82 0 0 0 9.47 11.73 11.9 11.9 0 0 1 -5.33.2 11.82 11.82 0 0 0 11 8.2 23.75 23.75 0 0 1 -17.44 4.89z" fill="#fff"/></svg>